<svg width="100%" height="100%" viewBox="0 0 500 150" version="1.1" xmlns="http://www.w3.org/2000/svg" xmlns:xlink="http://www.w3.org/1999/xlink" xml:space="preserve" xmlns:serif="http://www.serif.com/" style="fill-rule:evenodd;clip-rule:evenodd;stroke-linejoin:round;stroke-miterlimit:1.41421;">
    <path d="M424.856,123.85l1.34,6.554c1.674,0.909 3.253,1.292 5.502,1.292c5.071,0 8.372,-2.297 8.372,-6.555c0,-3.396 -1.914,-5.023 -6.602,-6.889l-1.962,-0.813c-5.454,-2.201 -9.042,-5.215 -9.042,-10.477c0,-6.076 5.071,-9.616 11.673,-9.616c3.541,0 6.315,1.1 8.612,2.775l-0.335,6.841l-2.727,0l-1.34,-6.267c-1.339,-0.766 -2.631,-1.053 -4.257,-1.053c-4.21,0 -7.32,2.105 -7.32,6.124c0,3.349 2.153,5.358 5.932,6.841l2.105,0.813c6.985,2.775 9.568,5.693 9.568,10.621c0,6.219 -5.071,9.951 -12.343,9.951c-3.97,0 -7.798,-1.244 -10.19,-2.775l0.335,-7.367l2.679,0Zm-173.853,-25.691l19.375,26.791l-0.095,-24.303l-5.598,-0.67l0,-1.818l12.391,0l0,1.818l-4.401,0.622l-0.048,32.962l-1.866,0l-21.385,-29.374l0.096,26.504l5.597,0.717l0,1.818l-12.39,0l0,-1.818l4.401,-0.621l0.096,-29.662l-0.527,-0.67l-3.731,-0.478l0,-1.818l8.085,0Zm-34.158,29.087l11.338,-29.087l10.094,0l0,1.818l-4.879,0.526c-0.096,4.545 -0.096,9.234 -0.096,13.922l0,2.583c0,4.593 0,9.234 0.096,13.874l4.831,0.526l0,1.818l-14.256,0l0,-1.818l4.545,-0.526c0.096,-4.545 0.096,-9.137 0.096,-13.73l0.047,-14.065l-11.816,30.139l-2.249,0l-12.247,-30.044c0.096,4.593 0.287,10.717 0.287,10.956l0,16.601l4.545,0.669l0,1.818l-11.721,0l0,-1.818l4.736,-0.669l0.048,-30.188l-4.784,-0.574l0,-1.818l9.568,0l11.817,29.087Zm-80.756,-29.087l0,1.818l-4.831,0.526c-0.096,4.497 -0.096,9.09 -0.096,13.731l17.079,0c0,-4.593 0,-9.186 -0.096,-13.731l-4.832,-0.526l0,-1.818l14.688,0l0,1.818l-4.88,0.526c-0.096,4.545 -0.096,9.234 -0.096,13.922l0,2.583c0,4.593 0,9.234 0.096,13.874l4.88,0.526l0,1.818l-14.688,0l0,-1.818l4.832,-0.526c0.096,-4.497 0.096,-9.137 0.096,-14.591l-17.079,0c0,5.358 0,10.046 0.096,14.591l4.831,0.526l0,1.818l-14.687,0l0,-1.818l4.88,-0.526c0.096,-4.592 0.096,-9.185 0.096,-13.874l0,-2.583c0,-4.688 0,-9.329 -0.096,-13.922l-4.88,-0.526l0,-1.818l14.687,0Zm234.325,0l0,1.818l-4.928,0.526l6.937,11.769l7.128,-11.625l-4.64,-0.67l0,-1.818l11.96,0l0,1.818l-4.736,0.622l-8.66,13.491l9.903,16.792l4.497,0.526l0,1.818l-14.639,0l0,-1.818l4.88,-0.526l-7.511,-12.821l-7.798,12.678l4.353,0.717l0,1.77l-11.864,0l0,-1.818l4.927,-0.717l9.282,-14.448l-9.282,-15.788l-4.592,-0.478l0,-1.818l14.783,0Zm-194.665,0l0,1.818l-5.119,0.526l7.655,16.505l7.75,-16.409l-4.927,-0.622l0,-1.818l11.864,0l0,1.818l-4.545,0.622l-9.089,18.754c0,4.497 0,8.037 0.095,11.481l5.406,0.574l0,1.818l-15.739,0l0,-1.818l5.406,-0.574c0.095,-3.348 0.095,-6.841 0.095,-11.29l-9.424,-19.136l-3.971,-0.431l0,-1.818l14.543,0Zm213.705,0l28.752,0l0.335,9.329l-2.535,0l-1.483,-7.033l-8.229,0c-0.096,4.593 -0.096,9.282 -0.096,13.97l0,2.583c0,4.593 0,9.234 0.096,13.826l5.406,0.574l0,1.818l-15.787,0l0,-1.818l5.406,-0.574c0.095,-4.544 0.095,-9.137 0.095,-13.826l0,-2.583c0,-4.688 0,-9.377 -0.095,-13.97l-8.229,0l-1.435,7.033l-2.631,0l0.43,-9.329Zm-96.59,0l28.752,0l0.335,9.329l-2.536,0l-1.483,-7.033l-8.228,0c-0.096,4.593 -0.096,9.282 -0.096,13.97l0,2.583c0,4.593 0,9.234 0.096,13.826l5.406,0.574l0,1.818l-15.788,0l0,-1.818l5.406,-0.574c0.096,-4.544 0.096,-9.137 0.096,-13.826l0,-2.583c0,-4.688 0,-9.377 -0.096,-13.97l-8.228,0l-1.436,7.033l-2.631,0l0.431,-9.329Zm32.484,0l25.977,0l0.287,9.233l-2.583,0l-1.388,-6.937l-12.438,0c-0.096,4.545 -0.096,9.138 -0.096,13.874l7.894,0l0.765,-5.166l2.153,0l0,12.342l-2.153,0l-0.717,-5.071l-7.942,0c0,5.167 0,9.856 0.096,14.496l13.443,0l1.387,-7.033l2.584,0l-0.287,9.329l-26.982,0l0,-1.818l4.879,-0.526c0.096,-4.592 0.096,-9.185 0.096,-13.874l0,-2.583c0,-4.688 0,-9.329 -0.096,-13.922l-4.879,-0.526l0,-1.818Zm-195.855,-62.742c-0.038,0.723 -0.162,1.475 -0.371,2.255c-0.21,0.78 -0.466,1.484 -0.771,2.112c-0.304,0.628 -0.628,1.151 -0.97,1.57c-0.343,0.419 -0.666,0.628 -0.971,0.628c-0.418,-0.038 -0.666,-0.324 -0.742,-0.856c0,-0.115 0.048,-0.295 0.143,-0.543c0.095,-0.247 0.2,-0.523 0.314,-0.827c0.114,-0.305 0.219,-0.609 0.314,-0.914c0.095,-0.304 0.142,-0.571 0.142,-0.799c0,-0.533 -0.123,-0.98 -0.371,-1.342c-0.247,-0.361 -0.58,-0.542 -0.999,-0.542c-1.522,0 -2.683,0.952 -3.482,2.854c-0.799,1.903 -1.199,4.7 -1.199,8.392c0,0.381 0.019,0.609 0.057,0.685c0.8,-0.038 1.513,-0.067 2.141,-0.086c0.628,-0.019 1.247,-0.028 1.855,-0.028c0.038,0.076 0.058,0.228 0.058,0.456c0,0.343 -0.077,0.59 -0.229,0.743c-0.875,0.19 -1.57,0.352 -2.083,0.485c-0.514,0.133 -0.904,0.257 -1.171,0.371c-0.266,0.114 -0.428,0.238 -0.485,0.371c-0.057,0.133 -0.086,0.314 -0.086,0.542c0,0.305 0.01,0.609 0.029,0.914c0.019,0.304 0.029,0.685 0.029,1.141c0,3.197 -0.866,5.766 -2.598,7.707c-1.731,1.941 -4.138,3.063 -7.221,3.368c-0.533,-0.038 -1.085,-0.19 -1.656,-0.457c-0.57,-0.266 -1.113,-0.609 -1.626,-1.027c-0.514,-0.419 -0.961,-0.885 -1.342,-1.399c-0.381,-0.514 -0.647,-1.037 -0.799,-1.57c0,-1.446 0.304,-2.826 0.913,-4.139c0.609,-1.312 1.437,-2.473 2.483,-3.482c1.047,-1.008 2.284,-1.826 3.711,-2.454c1.427,-0.628 2.978,-0.999 4.652,-1.114c0,-0.951 -0.095,-1.883 -0.285,-2.797c-0.19,-0.913 -0.39,-1.798 -0.599,-2.654c-0.21,-0.856 -0.41,-1.694 -0.6,-2.512c-0.19,-0.818 -0.285,-1.627 -0.285,-2.426c0,-1.028 0.209,-2.046 0.628,-3.054c0.418,-1.009 0.97,-1.941 1.655,-2.797c0.685,-0.857 1.484,-1.589 2.398,-2.198c0.913,-0.609 1.864,-1.028 2.854,-1.256c0.419,0.114 0.98,0.447 1.684,0.999c0.704,0.552 1.399,1.17 2.084,1.855c0.685,0.685 1.294,1.38 1.826,2.084c0.533,0.704 0.857,1.284 0.971,1.741Zm-73.183,19.752c0.57,-1.256 1.255,-2.874 2.055,-4.853c0.799,-1.979 1.636,-4.119 2.511,-6.422c0.876,-2.302 1.77,-4.662 2.683,-7.078c0.914,-2.417 1.77,-4.71 2.569,-6.879c0.799,-2.169 1.494,-4.11 2.084,-5.823c0.59,-1.712 1.018,-3.025 1.284,-3.939c-2.397,0.99 -4.452,2.493 -6.165,4.51c-1.712,2.017 -3.006,4.548 -3.882,7.592c-0.875,-0.304 -1.674,-0.846 -2.397,-1.627c-0.723,-0.78 -1.199,-1.76 -1.427,-2.939c0.38,-1.751 1.094,-3.349 2.14,-4.796c1.047,-1.446 2.369,-2.683 3.968,-3.71c1.598,-1.028 3.444,-1.817 5.537,-2.369c2.093,-0.552 4.338,-0.828 6.736,-0.828c3.045,0 5.842,0.447 8.392,1.342c2.549,0.894 4.738,2.14 6.564,3.739c1.827,1.598 3.254,3.52 4.282,5.765c1.027,2.246 1.541,4.738 1.541,7.478c0,3.73 -0.685,7.288 -2.055,10.675c-1.37,3.387 -3.225,6.375 -5.566,8.963c-2.34,2.588 -5.052,4.652 -8.134,6.193c-3.083,1.542 -6.318,2.312 -9.705,2.312c-3.121,0 -5.794,-0.618 -8.02,-1.855c-2.227,-1.237 -3.892,-3.054 -4.995,-5.451Zm54.345,6.279c0.913,-0.381 1.779,-0.932 2.597,-1.656c0.818,-0.723 1.532,-1.541 2.141,-2.454c0.609,-0.914 1.094,-1.884 1.455,-2.912c0.362,-1.027 0.543,-2.036 0.543,-3.025c-0.761,0.114 -1.599,0.466 -2.512,1.056c-0.913,0.59 -1.77,1.294 -2.569,2.112c-0.799,0.818 -1.465,1.665 -1.998,2.54c-0.533,0.876 -0.799,1.637 -0.799,2.284c0,0.837 0.381,1.522 1.142,2.055Zm70.785,-23.519c0,-0.685 0.048,-1.332 0.143,-1.941c0.095,-0.609 0.295,-1.132 0.599,-1.57c0.305,-0.438 0.723,-0.78 1.256,-1.027c0.533,-0.248 1.237,-0.371 2.112,-0.371c0.533,0 1.133,0.057 1.799,0.171c0.666,0.114 1.151,0.323 1.455,0.628c-0.152,0.647 -0.276,1.218 -0.371,1.712c-0.095,0.495 -0.171,1.037 -0.228,1.627c-0.057,0.59 -0.105,1.294 -0.143,2.112c-0.038,0.819 -0.076,1.875 -0.114,3.169c-0.076,2.587 -0.2,4.899 -0.371,6.935c-0.171,2.036 -0.561,4.063 -1.17,6.08c0,0.152 0.057,0.228 0.171,0.228c0.571,-0.418 1.218,-1.027 1.941,-1.826c0.723,-0.8 1.484,-1.703 2.283,-2.712c0.799,-1.008 1.599,-2.084 2.398,-3.225c0.799,-1.142 1.541,-2.265 2.226,-3.368c0.913,-1.599 1.922,-3.597 3.026,-5.994c1.103,-2.398 2.017,-4.967 2.74,-7.707c0.228,0 0.523,0.048 0.884,0.143c0.362,0.095 0.724,0.209 1.085,0.342c0.362,0.134 0.685,0.276 0.971,0.429c0.285,0.152 0.485,0.285 0.599,0.399c-0.076,1.637 -0.466,3.311 -1.17,5.024c-0.704,1.712 -1.551,3.368 -2.541,4.966c-0.989,1.599 -2.036,3.102 -3.139,4.51c-1.104,1.408 -2.112,2.626 -3.026,3.653c-1.827,2.131 -3.663,4.034 -5.508,5.709c-1.846,1.674 -4.044,3.292 -6.594,4.852c-0.989,-0.381 -1.769,-0.885 -2.34,-1.513c-0.571,-0.628 -0.857,-1.284 -0.857,-1.969c0,-0.457 0.105,-0.98 0.314,-1.57c0.21,-0.59 0.448,-1.351 0.714,-2.283c0.266,-0.933 0.504,-2.103 0.714,-3.511c0.209,-1.408 0.313,-3.197 0.313,-5.366c0,-1.256 -0.028,-2.521 -0.085,-3.796c-0.057,-1.275 -0.086,-2.255 -0.086,-2.94Zm42.871,-3.425c-0.152,2.359 -0.571,4.386 -1.256,6.079c-0.685,1.694 -1.665,3.178 -2.94,4.453c-1.275,1.275 -2.825,2.426 -4.652,3.454c-1.827,1.027 -3.958,2.017 -6.394,2.968c0,0.228 -0.009,0.466 -0.028,0.714c-0.019,0.247 -0.029,0.504 -0.029,0.77c0,0.495 0.038,1.009 0.115,1.542c0.076,0.532 0.209,1.027 0.399,1.484c0.19,0.456 0.457,0.827 0.799,1.113c0.343,0.285 0.78,0.428 1.313,0.428c1.028,0 2.036,-0.228 3.026,-0.685c0.989,-0.457 1.931,-1.018 2.825,-1.684c0.895,-0.666 1.732,-1.389 2.512,-2.169c0.78,-0.78 1.475,-1.494 2.084,-2.141c0.38,0.343 0.704,0.666 0.97,0.971c-1.712,2.283 -3.587,4.176 -5.623,5.679c-2.036,1.504 -3.967,2.465 -5.794,2.883c-2.626,-0.304 -4.671,-1.265 -6.136,-2.883c-1.466,-1.617 -2.198,-3.567 -2.198,-5.851c0,-1.56 0.219,-3.149 0.656,-4.766c0.438,-1.618 1.047,-3.178 1.827,-4.681c0.78,-1.504 1.694,-2.921 2.74,-4.253c1.047,-1.332 2.169,-2.493 3.368,-3.482c1.199,-0.99 2.436,-1.77 3.711,-2.341c1.275,-0.571 2.54,-0.856 3.796,-0.856c1.75,0.228 3.387,1.313 4.909,3.254Zm25.289,25.802c-0.609,-0.076 -1.247,-0.333 -1.912,-0.77c-0.666,-0.438 -1.095,-0.923 -1.285,-1.456c0,-0.457 0.067,-1.047 0.2,-1.77c0.133,-0.723 0.295,-1.455 0.485,-2.198c0.19,-0.742 0.381,-1.446 0.571,-2.112c0.19,-0.666 0.323,-1.17 0.4,-1.512c0.456,0 1.037,0.114 1.741,0.342c0.704,0.228 1.427,0.542 2.169,0.942c0.742,0.4 1.446,0.856 2.112,1.37c0.666,0.514 1.17,1.037 1.513,1.57c-0.343,0.761 -0.78,1.484 -1.313,2.169c-0.533,0.685 -1.094,1.284 -1.684,1.798c-0.59,0.514 -1.151,0.914 -1.684,1.199c-0.533,0.285 -0.971,0.428 -1.313,0.428Zm13.757,0c-0.609,-0.076 -1.246,-0.333 -1.912,-0.77c-0.666,-0.438 -1.094,-0.923 -1.284,-1.456c0,-0.457 0.066,-1.047 0.199,-1.77c0.134,-0.723 0.295,-1.455 0.486,-2.198c0.19,-0.742 0.38,-1.446 0.57,-2.112c0.191,-0.666 0.324,-1.17 0.4,-1.512c0.457,0 1.037,0.114 1.741,0.342c0.704,0.228 1.427,0.542 2.169,0.942c0.743,0.4 1.447,0.856 2.113,1.37c0.666,0.514 1.17,1.037 1.512,1.57c-0.342,0.761 -0.78,1.484 -1.313,2.169c-0.532,0.685 -1.094,1.284 -1.684,1.798c-0.59,0.514 -1.151,0.914 -1.684,1.199c-0.532,0.285 -0.97,0.428 -1.313,0.428Zm13.758,0c-0.609,-0.076 -1.246,-0.333 -1.912,-0.77c-0.666,-0.438 -1.095,-0.923 -1.285,-1.456c0,-0.457 0.067,-1.047 0.2,-1.77c0.133,-0.723 0.295,-1.455 0.485,-2.198c0.19,-0.742 0.381,-1.446 0.571,-2.112c0.19,-0.666 0.323,-1.17 0.4,-1.512c0.456,0 1.037,0.114 1.741,0.342c0.704,0.228 1.427,0.542 2.169,0.942c0.742,0.4 1.446,0.856 2.112,1.37c0.666,0.514 1.17,1.037 1.513,1.57c-0.343,0.761 -0.78,1.484 -1.313,2.169c-0.533,0.685 -1.094,1.284 -1.684,1.798c-0.59,0.514 -1.151,0.914 -1.684,1.199c-0.533,0.285 -0.971,0.428 -1.313,0.428Zm-116.853,-0.171c-2.17,-0.228 -3.901,-1.18 -5.195,-2.854c-1.294,-1.675 -1.941,-3.806 -1.941,-6.394c0,-1.522 0.228,-3.101 0.685,-4.738c0.457,-1.636 1.104,-3.225 1.941,-4.767c0.837,-1.541 1.827,-2.996 2.968,-4.367c1.142,-1.37 2.379,-2.549 3.711,-3.539c2.093,-1.56 4.053,-2.34 5.88,-2.34c1.217,0.647 2.416,1.998 3.596,4.053c0.19,0 0.362,-0.01 0.514,-0.029c0.152,-0.019 0.323,-0.028 0.514,-0.028c2.017,0 3.025,1.788 3.025,5.366c0,2.397 -0.39,4.671 -1.17,6.821c-0.78,2.151 -1.865,4.101 -3.254,5.852c-1.389,1.75 -3.045,3.225 -4.966,4.424c-1.922,1.198 -4.025,2.045 -6.308,2.54Zm65.305,-3.14c0.19,-1.103 0.523,-2.559 0.999,-4.367c0.476,-1.807 1.037,-3.729 1.684,-5.765c0.647,-2.036 1.332,-4.082 2.055,-6.137c0.723,-2.055 1.427,-3.901 2.112,-5.537c0.495,-1.18 0.933,-2.103 1.313,-2.769c0.381,-0.666 0.799,-1.227 1.256,-1.684c0.533,0.076 1.085,0.209 1.656,0.4c0.57,0.19 1.122,0.418 1.655,0.685c0.533,0.266 1.009,0.542 1.427,0.827c0.419,0.286 0.742,0.562 0.971,0.828c-1.028,1.218 -1.932,2.607 -2.712,4.167c-0.78,1.561 -1.57,3.559 -2.369,5.994c2.055,-1.826 3.872,-3.577 5.452,-5.251c1.579,-1.675 3.054,-3.54 4.424,-5.595c0.228,-0.19 0.628,-0.285 1.199,-0.285c0.532,0 1.046,0.085 1.541,0.257c0.495,0.171 0.837,0.409 1.027,0.713c-0.685,1.827 -1.027,3.635 -1.027,5.423c0,1.675 0.247,2.931 0.742,3.768c-0.038,0.228 -0.295,0.666 -0.771,1.313c-0.475,0.647 -0.999,1.256 -1.57,1.827c-1.027,-0.533 -1.94,-1.266 -2.74,-2.198c-0.799,-0.933 -1.389,-1.951 -1.769,-3.054c-1.789,1.256 -3.311,2.483 -4.567,3.682c-1.256,1.199 -2.331,2.531 -3.225,3.996c-0.895,1.465 -1.656,3.149 -2.284,5.052c-0.628,1.903 -1.227,4.167 -1.798,6.793c-0.343,-0.038 -0.752,-0.162 -1.227,-0.371c-0.476,-0.21 -0.952,-0.466 -1.427,-0.771c-0.476,-0.304 -0.904,-0.628 -1.285,-0.97c-0.38,-0.343 -0.628,-0.666 -0.742,-0.971Zm-95.675,-8.905c0,-2.169 0.448,-4.272 1.342,-6.308c0.894,-2.036 2.074,-3.844 3.539,-5.423c1.465,-1.579 3.14,-2.854 5.024,-3.825c1.883,-0.97 3.834,-1.455 5.851,-1.455c1.979,0 3.501,0.494 4.567,1.484c1.065,0.989 1.598,2.397 1.598,4.224c0,0.875 -0.124,1.722 -0.371,2.54c-0.247,0.819 -0.571,1.551 -0.97,2.198c-0.4,0.647 -0.866,1.17 -1.399,1.57c-0.533,0.4 -1.066,0.599 -1.598,0.599c-0.457,0 -0.923,-0.142 -1.399,-0.428c-0.476,-0.285 -0.866,-0.656 -1.17,-1.113c2.55,-2.321 3.824,-4.433 3.824,-6.336c0,-1.104 -0.437,-1.656 -1.313,-1.656c-0.761,0 -1.712,0.362 -2.854,1.085c-1.141,0.723 -2.245,1.674 -3.311,2.854c-1.636,1.827 -2.883,3.853 -3.739,6.08c-0.856,2.226 -1.284,4.557 -1.284,6.993c0,3.082 0.685,4.928 2.055,5.537c0.571,-0.076 1.237,-0.248 1.998,-0.514c0.761,-0.266 1.579,-0.618 2.455,-1.056c0.875,-0.438 1.779,-0.942 2.711,-1.513c0.932,-0.571 1.836,-1.18 2.712,-1.826c0.152,0.114 0.285,0.285 0.399,0.513c0.114,0.229 0.171,0.438 0.171,0.628c-0.647,0.799 -1.389,1.58 -2.226,2.341c-0.837,0.761 -1.712,1.455 -2.626,2.083c-0.913,0.628 -1.798,1.161 -2.654,1.599c-0.857,0.437 -1.608,0.713 -2.255,0.827c-1.256,-0.114 -2.436,-0.504 -3.539,-1.17c-1.104,-0.666 -2.065,-1.532 -2.883,-2.597c-0.818,-1.066 -1.465,-2.284 -1.941,-3.654c-0.476,-1.37 -0.714,-2.797 -0.714,-4.281Zm-33.509,6.222c0,-0.342 0.029,-0.77 0.086,-1.284c0.057,-0.514 0.162,-1.199 0.314,-2.055c0.152,-0.857 0.352,-1.894 0.599,-3.111c0.248,-1.218 0.562,-2.683 0.942,-4.396c0.076,-0.38 0.248,-0.989 0.514,-1.827c0.266,-0.837 0.618,-1.722 1.056,-2.654c0.438,-0.932 0.971,-1.836 1.599,-2.712c0.627,-0.875 1.379,-1.522 2.254,-1.941c0.647,0.153 1.504,0.543 2.569,1.171c1.066,0.628 1.979,1.493 2.74,2.597c-0.875,0.99 -1.608,1.979 -2.197,2.969c-0.59,0.989 -1.123,2.017 -1.599,3.082c-0.476,1.066 -0.913,2.169 -1.313,3.311c-0.399,1.142 -0.847,2.341 -1.341,3.596c-0.419,1.066 -0.8,2.16 -1.142,3.283c-0.343,1.122 -0.533,2.102 -0.571,2.94c0,0.685 -0.009,1.17 -0.028,1.455c-0.019,0.286 -0.124,0.428 -0.314,0.428c-0.153,0 -0.457,-0.095 -0.914,-0.285c-0.456,-0.19 -0.923,-0.485 -1.398,-0.885c-0.476,-0.399 -0.904,-0.904 -1.285,-1.513c-0.38,-0.608 -0.571,-1.332 -0.571,-2.169Zm66.79,-12.159c-0.647,0.875 -1.256,1.827 -1.827,2.854c-0.571,1.028 -1.065,2.065 -1.484,3.112c-0.419,1.046 -0.742,2.055 -0.97,3.025c-0.229,0.97 -0.343,1.836 -0.343,2.597c0,0.914 0.152,1.789 0.457,2.626c0.304,0.838 0.647,1.313 1.027,1.427c1.713,-0.38 3.283,-1.094 4.71,-2.14c1.427,-1.047 2.664,-2.35 3.71,-3.911c1.047,-1.56 1.865,-3.33 2.455,-5.308c0.59,-1.979 0.885,-4.092 0.885,-6.337c0,-0.989 -0.057,-1.77 -0.171,-2.34c-0.115,-0.571 -0.305,-1.066 -0.571,-1.485c-1.675,0.495 -3.168,1.294 -4.481,2.398c-1.313,1.104 -2.446,2.264 -3.397,3.482Zm-86.712,-23.291c-1.903,0 -3.711,0.267 -5.423,0.8c1.674,0.608 3.063,1.246 4.167,1.912c1.103,0.666 1.865,1.189 2.283,1.57c-0.304,0.418 -0.751,1.161 -1.341,2.226c-0.59,1.066 -1.275,2.36 -2.055,3.882c-0.781,1.522 -1.608,3.187 -2.484,4.995c-0.875,1.808 -1.731,3.663 -2.568,5.566c-2.17,4.833 -3.739,8.639 -4.71,11.417c-0.97,2.778 -1.456,4.7 -1.456,5.765c0.533,0.191 1.18,0.324 1.941,0.4c0.761,0.076 1.58,0.114 2.455,0.114c3.083,0 6.003,-0.714 8.763,-2.141c2.759,-1.427 5.175,-3.339 7.249,-5.737c2.074,-2.397 3.711,-5.185 4.91,-8.363c1.198,-3.177 1.798,-6.517 1.798,-10.018c0,-3.92 -1.218,-6.965 -3.654,-9.134c-2.435,-2.169 -5.727,-3.254 -9.875,-3.254Zm143.911,17.526c-1.027,0.152 -2.093,0.57 -3.196,1.255c-1.104,0.685 -2.141,1.599 -3.112,2.74c-0.97,1.142 -1.855,2.474 -2.654,3.996c-0.799,1.523 -1.427,3.159 -1.884,4.91c3.045,-1.523 5.575,-3.397 7.592,-5.623c2.017,-2.226 3.102,-4.653 3.254,-7.278Zm-113.085,-6.851c0,-0.228 0.057,-0.571 0.171,-1.027c-0.19,-0.191 -0.352,-0.476 -0.485,-0.857c-0.134,-0.38 -0.2,-0.723 -0.2,-1.027c0,-0.343 0.047,-0.809 0.143,-1.399c0.095,-0.589 0.218,-1.227 0.371,-1.912c0.152,-0.685 0.342,-1.399 0.57,-2.141c0.229,-0.742 0.457,-1.417 0.686,-2.026c0.456,0 1.018,0.123 1.684,0.371c0.666,0.247 1.341,0.571 2.026,0.97c0.685,0.4 1.313,0.838 1.884,1.313c0.571,0.476 1.008,0.923 1.313,1.342c-0.419,0.418 -0.971,0.999 -1.656,1.741c-0.685,0.742 -1.351,1.522 -1.998,2.34c-0.647,0.819 -1.236,1.589 -1.769,2.312c-0.533,0.723 -0.876,1.237 -1.028,1.542c-0.456,-0.077 -0.856,-0.276 -1.199,-0.6c-0.342,-0.323 -0.513,-0.637 -0.513,-0.942Z" style="fill:#f18f01;fill-rule:nonzero;"/>
</svg>