<svg width="100%" height="100%" viewBox="0 0 500 150" version="1.1" xmlns="http://www.w3.org/2000/svg" xmlns:xlink="http://www.w3.org/1999/xlink" xml:space="preserve" xmlns:serif="http://www.serif.com/" style="fill-rule:evenodd;clip-rule:evenodd;stroke-linejoin:round;stroke-miterlimit:1.41421;">
    <path d="M256.798,109.588l-2.727,0l-1.339,-6.267c-1.34,-0.766 -2.631,-1.053 -4.258,-1.053c-4.21,0 -7.32,2.105 -7.32,6.124c0,3.349 2.153,5.358 5.933,6.841l2.105,0.813c6.984,2.775 9.568,5.693 9.568,10.621c0,6.219 -5.071,9.951 -12.343,9.951c-3.971,0 -7.798,-1.244 -10.19,-2.775l0.335,-7.367l2.679,0l1.339,6.554c1.675,0.909 3.253,1.291 5.502,1.291c5.071,0 8.372,-2.296 8.372,-6.554c0,-3.396 -1.914,-5.023 -6.602,-6.889l-1.961,-0.813c-5.454,-2.201 -9.042,-5.215 -9.042,-10.477c0,-6.076 5.071,-9.616 11.673,-9.616c3.54,0 6.315,1.1 8.611,2.775l-0.335,6.841Zm-26.551,0l-2.727,0l-1.34,-6.267c-1.339,-0.766 -2.631,-1.053 -4.258,-1.053c-4.21,0 -7.319,2.105 -7.319,6.124c0,3.349 2.153,5.358 5.932,6.841l2.105,0.813c6.985,2.775 9.568,5.693 9.568,10.621c0,6.219 -5.071,9.951 -12.343,9.951c-3.971,0 -7.798,-1.244 -10.19,-2.775l0.335,-7.367l2.679,0l1.34,6.554c1.674,0.909 3.253,1.291 5.501,1.291c5.071,0 8.372,-2.296 8.372,-6.554c0,-3.396 -1.913,-5.023 -6.602,-6.889l-1.961,-0.813c-5.454,-2.201 -9.042,-5.215 -9.042,-10.477c0,-6.076 5.071,-9.616 11.673,-9.616c3.54,0 6.315,1.1 8.612,2.775l-0.335,6.841Zm225.378,0l-2.727,0l-1.34,-6.267c-1.339,-0.766 -2.631,-1.053 -4.258,-1.053c-4.21,0 -7.319,2.105 -7.319,6.124c0,3.349 2.152,5.358 5.932,6.841l2.105,0.813c6.985,2.775 9.568,5.693 9.568,10.621c0,6.219 -5.071,9.951 -12.343,9.951c-3.971,0 -7.798,-1.244 -10.19,-2.775l0.335,-7.367l2.679,0l1.34,6.554c1.674,0.909 3.253,1.291 5.501,1.291c5.071,0 8.372,-2.296 8.372,-6.554c0,-3.396 -1.913,-5.023 -6.602,-6.889l-1.961,-0.813c-5.454,-2.201 -9.042,-5.215 -9.042,-10.477c0,-6.076 5.071,-9.616 11.673,-9.616c3.54,0 6.315,1.1 8.611,2.775l-0.334,6.841Zm-316.611,0.67l-2.87,0l-1.292,-6.698c-1.818,-0.909 -3.588,-1.292 -5.358,-1.292c-7.224,0 -12.965,5.597 -12.965,16.027c0,10.477 5.263,16.026 12.774,16.026c1.961,0 4.018,-0.334 6.028,-1.291l1.291,-6.65l2.871,0l-0.096,7.702c-3.253,1.77 -6.746,2.536 -10.477,2.536c-10.573,0 -17.797,-7.416 -17.797,-18.323c0,-10.717 7.559,-18.323 17.797,-18.323c3.014,0 6.554,0.574 9.999,2.583l0.095,7.703Zm270.157,25.594l-12.391,0l0,-1.818l4.402,-0.622l0.095,-29.661l-0.526,-0.67l-3.731,-0.478l0,-1.818l8.085,0l19.375,26.791l-0.095,-24.303l-5.598,-0.67l0,-1.818l12.391,0l0,1.818l-4.401,0.622l-0.048,32.962l-1.866,0l-21.385,-29.374l0.096,26.504l5.597,0.717l0,1.818Zm-47.888,0l-11.721,0l0,-1.818l4.736,-0.669l0.048,-30.188l-4.784,-0.574l0,-1.818l9.568,0l11.816,29.087l11.339,-29.087l10.094,0l0,1.818l-4.88,0.526c-0.095,4.545 -0.095,9.234 -0.095,13.922l0,2.583c0,4.593 0,9.234 0.095,13.874l4.832,0.526l0,1.818l-14.256,0l0,-1.818l4.545,-0.526c0.095,-4.545 0.095,-9.137 0.095,-13.73l0.048,-14.065l-11.817,30.139l-2.248,0l-12.247,-30.044c0.095,4.593 0.287,10.717 0.287,10.956l0,16.601l4.545,0.669l0,1.818Zm-71.092,0l-14.687,0l0,-1.818l4.88,-0.526c0.095,-4.593 0.095,-9.185 0.095,-13.874l0,-2.583c0,-4.688 0,-9.329 -0.095,-13.922l-4.88,-0.526l0,-1.818l14.687,0l0,1.818l-4.832,0.526c-0.095,4.497 -0.095,9.09 -0.095,13.731l17.079,0c0,-4.593 0,-9.186 -0.096,-13.731l-4.832,-0.526l0,-1.818l14.687,0l0,1.818l-4.88,0.526c-0.095,4.545 -0.095,9.234 -0.095,13.922l0,2.583c0,4.593 0,9.234 0.095,13.874l4.88,0.526l0,1.818l-14.687,0l0,-1.818l4.832,-0.526c0.096,-4.497 0.096,-9.137 0.096,-14.591l-17.079,0c0,5.358 0,10.046 0.095,14.591l4.832,0.526l0,1.818Zm-105.441,0l-11.673,0l0,-1.818l4.258,-0.669l11.147,-32.819l3.061,0l11.291,33.01l4.114,0.478l0,1.818l-14.256,0l0,-1.818l5.166,-0.622l-3.061,-9.185l-12.152,0l-3.014,9.138l5.119,0.669l0,1.818Zm154.191,0l-15.74,0l0,-1.818l5.406,-0.574c0.096,-3.349 0.096,-6.841 0.096,-11.29l-9.425,-19.136l-3.97,-0.431l0,-1.818l14.543,0l0,1.818l-5.119,0.526l7.655,16.505l7.75,-16.409l-4.928,-0.622l0,-1.818l11.865,0l0,1.818l-4.545,0.622l-9.09,18.754c0,4.497 0,8.037 0.096,11.481l5.406,0.574l0,1.818Zm-168.926,0l-25.977,0l0,-1.818l4.879,-0.526c0.096,-4.64 0.096,-9.281 0.096,-13.73l0,-2.727c0,-4.688 0,-9.377 -0.096,-13.922l-4.879,-0.526l0,-1.818l14.782,0l0,1.818l-4.927,0.526c-0.096,4.593 -0.096,9.234 -0.096,13.874l0,3.492c0,3.971 0,8.516 0.096,13.109l12.056,0l1.722,-7.607l2.727,0l-0.383,9.855Zm24.112,-13.682l-5.454,-16.266l-5.358,16.266l10.812,0Zm-97.425,-42.512c-0.533,-0.152 -0.837,-0.723 -0.913,-1.713c-0.153,-0.494 -0.257,-1.084 -0.314,-1.769c-0.057,-0.685 -0.086,-1.465 -0.086,-2.341c0,-0.799 0.133,-1.893 0.4,-3.282c0.266,-1.389 0.637,-2.959 1.113,-4.71c0.475,-1.75 1.056,-3.643 1.741,-5.68c0.685,-2.036 1.446,-4.1 2.283,-6.193c1.028,-2.626 1.922,-4.9 2.683,-6.822c0.761,-1.922 1.399,-3.587 1.913,-4.995c0.513,-1.408 0.932,-2.569 1.255,-3.482c0.324,-0.913 0.581,-1.694 0.771,-2.341c0.152,-0.456 0.381,-1.008 0.685,-1.655c0.305,-0.647 0.657,-1.303 1.056,-1.969c0.4,-0.666 0.809,-1.294 1.228,-1.884c0.418,-0.59 0.799,-1.037 1.141,-1.342c1.332,0.191 2.588,0.533 3.768,1.028c1.18,0.494 1.903,0.97 2.169,1.427c-0.533,0.495 -1.142,1.265 -1.827,2.312c-0.685,1.046 -1.351,2.188 -1.998,3.425c-0.647,1.237 -1.236,2.502 -1.769,3.796c-0.533,1.294 -0.933,2.436 -1.199,3.425c0.381,-0.647 0.875,-1.351 1.484,-2.112c0.609,-0.761 1.541,-1.808 2.797,-3.14c1.408,-1.446 2.731,-2.559 3.968,-3.339c1.237,-0.78 2.312,-1.17 3.225,-1.17c1.446,0 2.635,0.399 3.568,1.198c0.932,0.8 1.398,1.827 1.398,3.083c0,2.74 -0.456,5.452 -1.37,8.135c-0.913,2.683 -2.226,5.109 -3.938,7.278c-0.647,0.837 -1.409,1.636 -2.284,2.398c-0.875,0.761 -1.789,1.436 -2.74,2.026c-0.951,0.59 -1.884,1.056 -2.797,1.399c-0.913,0.342 -1.732,0.513 -2.455,0.513c-0.685,0 -1.284,-0.142 -1.798,-0.428c-0.514,-0.285 -0.866,-0.637 -1.056,-1.056c1.484,-0.875 2.93,-2.093 4.338,-3.653c1.409,-1.561 2.712,-3.359 3.911,-5.395c1.199,-2.036 2.245,-4.234 3.139,-6.593c0.895,-2.36 1.57,-4.757 2.027,-7.193c-1.446,0.761 -2.75,1.589 -3.91,2.483c-1.161,0.895 -2.312,2.065 -3.454,3.511c-1.37,1.675 -2.455,3.026 -3.254,4.053c-0.799,1.028 -1.456,1.903 -1.969,2.626c-0.514,0.723 -0.933,1.399 -1.256,2.027c-0.324,0.628 -0.676,1.398 -1.056,2.312c-0.533,1.217 -1.151,2.825 -1.856,4.823c-0.704,1.998 -1.427,4.234 -2.169,6.708c-0.742,2.473 -1.484,5.109 -2.226,7.906c-0.742,2.797 -1.456,5.585 -2.141,8.363c-0.418,-0.076 -0.78,-0.381 -1.084,-0.913c-0.305,-0.343 -0.524,-0.59 -0.657,-0.742c-0.133,-0.153 -0.295,-0.267 -0.485,-0.343Zm-31.111,-43.213c1.255,0 2.235,0.342 2.939,1.027c0.704,0.685 1.056,1.637 1.056,2.854c0,0.305 -0.028,0.619 -0.085,0.942c-0.057,0.324 -0.124,0.6 -0.2,0.828c-0.495,-0.076 -1.046,-0.143 -1.655,-0.2c-0.609,-0.057 -1.332,-0.085 -2.17,-0.085c-1.636,0 -3.292,0.142 -4.966,0.428c-1.675,0.285 -3.273,0.523 -4.795,0.713c-0.876,2.017 -1.675,3.968 -2.398,5.852c-0.723,1.883 -1.341,3.605 -1.855,5.166c-0.514,1.56 -0.913,2.911 -1.199,4.053c-0.285,1.141 -0.447,1.998 -0.485,2.569c3.083,-0.647 6.194,-1.199 9.333,-1.656c3.14,-0.457 6.441,-0.799 9.905,-1.027c0.418,0.647 0.77,1.351 1.056,2.112c0.285,0.761 0.428,1.579 0.428,2.454c0,0.229 0,0.476 0,0.743c0,0.266 -0.038,0.532 -0.114,0.799c-1.066,-0.038 -2.189,-0.067 -3.368,-0.086c-1.18,-0.019 -2.721,-0.028 -4.624,-0.028c-1.256,0 -2.445,0.028 -3.568,0.085c-1.123,0.057 -2.255,0.143 -3.397,0.257c-1.141,0.114 -2.35,0.266 -3.625,0.457c-1.274,0.19 -2.711,0.418 -4.309,0.685c-1.751,-0.685 -3.445,-2.36 -5.081,-5.024c0.647,-1.37 1.551,-3.453 2.712,-6.251c1.16,-2.797 2.635,-6.536 4.424,-11.217c-1.713,-0.533 -2.836,-1.484 -3.368,-2.854c0.19,-0.19 0.742,-0.428 1.655,-0.714c0.913,-0.285 2.036,-0.58 3.368,-0.884c0.571,-1.485 1.056,-2.779 1.456,-3.882c0.399,-1.104 0.751,-2.141 1.056,-3.111c0.304,-0.971 0.58,-1.922 0.828,-2.855c0.247,-0.932 0.485,-1.95 0.713,-3.054c-1.332,-0.076 -2.378,-0.447 -3.14,-1.113c-0.761,-0.666 -1.141,-1.532 -1.141,-2.597c0,-0.305 0.047,-0.666 0.142,-1.085c0.096,-0.418 0.2,-0.78 0.314,-1.084c0.762,0.114 1.494,0.19 2.198,0.228c0.704,0.038 1.627,0.057 2.769,0.057c2.397,0 4.643,-0.067 6.736,-0.2c2.093,-0.133 3.986,-0.276 5.68,-0.428c1.693,-0.152 3.149,-0.295 4.367,-0.428c1.218,-0.133 2.15,-0.2 2.797,-0.2c0.875,0 1.655,0.457 2.341,1.37c0.685,0.914 1.198,2.207 1.541,3.882c-1.18,-0.114 -2.141,-0.19 -2.883,-0.228c-0.742,-0.038 -1.399,-0.057 -1.969,-0.057c-2.094,0 -4.006,0.104 -5.737,0.314c-1.732,0.209 -3.397,0.428 -4.995,0.656c-0.229,0.342 -0.486,0.78 -0.771,1.313c-0.286,0.533 -0.657,1.275 -1.113,2.226c-0.457,0.952 -1.018,2.15 -1.684,3.597c-0.666,1.446 -1.475,3.253 -2.426,5.423c1.446,-0.229 2.806,-0.409 4.081,-0.543c1.275,-0.133 2.35,-0.199 3.226,-0.199Zm63.649,20.664c0,-1.674 0.4,-4.024 1.199,-7.05c0.799,-3.025 1.922,-6.555 3.368,-10.589c2.36,-6.431 4.577,-11.788 6.651,-16.069c2.074,-4.282 4.1,-7.621 6.079,-10.019c0.457,0.076 1.018,0.267 1.684,0.571c0.666,0.305 1.323,0.638 1.97,0.999c0.647,0.362 1.227,0.733 1.741,1.113c0.514,0.381 0.847,0.685 0.999,0.914c-2.969,3.501 -5.576,7.268 -7.821,11.302c-2.245,4.034 -4.3,8.658 -6.165,13.872c-1.598,4.491 -2.816,8.534 -3.654,12.131c-0.837,3.596 -1.255,6.593 -1.255,8.991c0,0.647 0,1.046 0,1.198c0,0.153 0.019,0.305 0.057,0.457c-0.533,-0.076 -0.99,-0.209 -1.37,-0.4c-0.381,-0.19 -0.628,-0.418 -0.742,-0.685c-0.077,-0.19 -0.286,-0.466 -0.628,-0.827c-0.343,-0.362 -0.647,-0.638 -0.914,-0.828c-0.342,-0.228 -0.628,-0.828 -0.856,-1.798c-0.228,-0.971 -0.343,-2.065 -0.343,-3.283Zm-34.936,3.311c-0.418,0.647 -1.075,1.171 -1.969,1.57c-0.894,0.4 -1.741,0.638 -2.54,0.714c-0.647,-0.761 -1.37,-1.798 -2.17,-3.111c-0.799,-1.313 -1.56,-2.845 -2.283,-4.596c-1.941,1.751 -3.882,3.34 -5.823,4.767c-1.941,1.427 -3.748,2.635 -5.423,3.625c-0.418,-0.076 -0.761,-0.305 -1.027,-0.685c-0.267,-0.381 -0.419,-0.876 -0.457,-1.484c0.761,-0.419 1.665,-0.971 2.712,-1.656c1.046,-0.685 2.112,-1.437 3.196,-2.255c1.085,-0.818 2.131,-1.674 3.14,-2.569c1.008,-0.894 1.874,-1.76 2.597,-2.597c-0.647,-1.522 -1.246,-3.092 -1.798,-4.71c-0.552,-1.617 -1.027,-3.177 -1.427,-4.68c-0.4,-1.504 -0.714,-2.874 -0.942,-4.111c-0.228,-1.236 -0.342,-2.235 -0.342,-2.997c0,-0.532 0.066,-0.884 0.199,-1.056c0.134,-0.171 0.448,-0.257 0.942,-0.257c0.381,0 0.847,0.039 1.399,0.115c0.552,0.076 1.113,0.171 1.684,0.285c0.571,0.114 1.142,0.238 1.712,0.371c0.571,0.133 1.066,0.276 1.485,0.428c-0.076,0.419 -0.114,0.78 -0.114,1.085c0,0.304 0,0.742 0,1.313c0,1.484 0.123,2.997 0.371,4.538c0.247,1.541 0.656,3.206 1.227,4.995c1.56,-1.789 3.006,-3.777 4.338,-5.965c1.332,-2.189 2.683,-4.805 4.053,-7.85c0.952,0.191 1.77,0.467 2.455,0.828c0.685,0.362 1.123,0.752 1.313,1.17c-0.419,1.751 -1.598,3.958 -3.539,6.622c-1.941,2.664 -4.415,5.499 -7.421,8.506c0.533,1.446 1.179,2.978 1.941,4.595c0.761,1.618 1.598,3.302 2.511,5.052Zm116.854,-23.29c-0.153,2.359 -0.571,4.386 -1.256,6.079c-0.685,1.694 -1.665,3.178 -2.94,4.453c-1.275,1.275 -2.826,2.426 -4.653,3.453c-1.826,1.028 -3.957,2.017 -6.393,2.969c0,0.228 -0.01,0.466 -0.029,0.713c-0.019,0.248 -0.028,0.505 -0.028,0.771c0,0.495 0.038,1.009 0.114,1.541c0.076,0.533 0.209,1.028 0.4,1.485c0.19,0.456 0.456,0.827 0.799,1.113c0.342,0.285 0.78,0.428 1.313,0.428c1.027,0 2.036,-0.228 3.025,-0.685c0.99,-0.457 1.932,-1.018 2.826,-1.684c0.894,-0.666 1.732,-1.389 2.512,-2.169c0.78,-0.78 1.474,-1.494 2.083,-2.141c0.381,0.342 0.704,0.666 0.971,0.97c-1.713,2.284 -3.587,4.177 -5.623,5.68c-2.036,1.504 -3.968,2.465 -5.794,2.883c-2.626,-0.304 -4.672,-1.265 -6.137,-2.883c-1.465,-1.617 -2.198,-3.567 -2.198,-5.851c0,-1.56 0.219,-3.149 0.657,-4.766c0.437,-1.618 1.046,-3.178 1.826,-4.681c0.781,-1.504 1.694,-2.921 2.741,-4.253c1.046,-1.332 2.169,-2.493 3.368,-3.482c1.198,-0.99 2.435,-1.77 3.71,-2.341c1.275,-0.571 2.54,-0.856 3.796,-0.856c1.751,0.228 3.387,1.313 4.91,3.254Zm4.224,25.802c-0.609,-0.076 -1.246,-0.333 -1.912,-0.771c-0.666,-0.437 -1.095,-0.922 -1.285,-1.455c0,-0.457 0.067,-1.047 0.2,-1.77c0.133,-0.723 0.295,-1.456 0.485,-2.198c0.19,-0.742 0.381,-1.446 0.571,-2.112c0.19,-0.666 0.323,-1.17 0.4,-1.513c0.456,0 1.037,0.115 1.741,0.343c0.704,0.228 1.427,0.542 2.169,0.942c0.742,0.399 1.446,0.856 2.112,1.37c0.666,0.514 1.17,1.037 1.513,1.57c-0.343,0.761 -0.78,1.484 -1.313,2.169c-0.533,0.685 -1.094,1.284 -1.684,1.798c-0.59,0.514 -1.151,0.914 -1.684,1.199c-0.533,0.285 -0.971,0.428 -1.313,0.428Zm13.757,0c-0.608,-0.076 -1.246,-0.333 -1.912,-0.771c-0.666,-0.437 -1.094,-0.922 -1.284,-1.455c0,-0.457 0.066,-1.047 0.199,-1.77c0.134,-0.723 0.295,-1.456 0.486,-2.198c0.19,-0.742 0.38,-1.446 0.571,-2.112c0.19,-0.666 0.323,-1.17 0.399,-1.513c0.457,0 1.037,0.115 1.741,0.343c0.704,0.228 1.427,0.542 2.169,0.942c0.743,0.399 1.447,0.856 2.113,1.37c0.666,0.514 1.17,1.037 1.512,1.57c-0.342,0.761 -0.78,1.484 -1.313,2.169c-0.532,0.685 -1.094,1.284 -1.684,1.798c-0.59,0.514 -1.151,0.914 -1.684,1.199c-0.532,0.285 -0.97,0.428 -1.313,0.428Zm13.758,0c-0.609,-0.076 -1.246,-0.333 -1.912,-0.771c-0.666,-0.437 -1.095,-0.922 -1.285,-1.455c0,-0.457 0.067,-1.047 0.2,-1.77c0.133,-0.723 0.295,-1.456 0.485,-2.198c0.19,-0.742 0.381,-1.446 0.571,-2.112c0.19,-0.666 0.324,-1.17 0.4,-1.513c0.456,0 1.037,0.115 1.741,0.343c0.704,0.228 1.427,0.542 2.169,0.942c0.742,0.399 1.446,0.856 2.112,1.37c0.666,0.514 1.17,1.037 1.513,1.57c-0.343,0.761 -0.78,1.484 -1.313,2.169c-0.533,0.685 -1.094,1.284 -1.684,1.798c-0.59,0.514 -1.151,0.914 -1.684,1.199c-0.533,0.285 -0.971,0.428 -1.313,0.428Zm-93.62,-0.171c-2.169,-0.228 -3.9,-1.18 -5.194,-2.854c-1.294,-1.675 -1.941,-3.806 -1.941,-6.394c0,-1.522 0.228,-3.102 0.685,-4.738c0.456,-1.636 1.103,-3.225 1.941,-4.767c0.837,-1.541 1.826,-2.997 2.968,-4.367c1.142,-1.37 2.379,-2.549 3.711,-3.539c2.093,-1.56 4.053,-2.34 5.879,-2.34c1.218,0.647 2.417,1.998 3.597,4.053c0.19,0 0.361,-0.01 0.513,-0.029c0.153,-0.019 0.324,-0.028 0.514,-0.028c2.017,0 3.026,1.788 3.026,5.366c0,2.397 -0.39,4.671 -1.171,6.821c-0.78,2.15 -1.864,4.101 -3.253,5.851c-1.389,1.751 -3.045,3.226 -4.967,4.425c-1.922,1.198 -4.024,2.045 -6.308,2.54Zm17.069,-3.14c0.19,-1.103 0.523,-2.559 0.999,-4.367c0.475,-1.808 1.037,-3.729 1.684,-5.765c0.647,-2.036 1.332,-4.082 2.055,-6.137c0.723,-2.055 1.427,-3.901 2.112,-5.537c0.495,-1.18 0.932,-2.103 1.313,-2.769c0.381,-0.666 0.799,-1.227 1.256,-1.684c0.533,0.076 1.084,0.209 1.655,0.4c0.571,0.19 1.123,0.418 1.656,0.685c0.533,0.266 1.008,0.542 1.427,0.827c0.419,0.286 0.742,0.562 0.97,0.828c-1.027,1.218 -1.931,2.607 -2.711,4.167c-0.78,1.561 -1.57,3.559 -2.369,5.994c2.055,-1.826 3.872,-3.577 5.451,-5.252c1.58,-1.674 3.054,-3.539 4.424,-5.594c0.229,-0.19 0.628,-0.285 1.199,-0.285c0.533,0 1.047,0.085 1.542,0.257c0.494,0.171 0.837,0.409 1.027,0.713c-0.685,1.827 -1.027,3.635 -1.027,5.423c0,1.675 0.247,2.931 0.742,3.768c-0.038,0.228 -0.295,0.666 -0.771,1.313c-0.476,0.647 -0.999,1.256 -1.57,1.826c-1.027,-0.532 -1.941,-1.265 -2.74,-2.197c-0.799,-0.933 -1.389,-1.951 -1.77,-3.054c-1.788,1.256 -3.31,2.483 -4.566,3.682c-1.256,1.198 -2.331,2.53 -3.226,3.996c-0.894,1.465 -1.655,3.149 -2.283,5.052c-0.628,1.902 -1.227,4.167 -1.798,6.793c-0.343,-0.038 -0.752,-0.162 -1.228,-0.371c-0.475,-0.21 -0.951,-0.466 -1.427,-0.771c-0.475,-0.304 -0.904,-0.628 -1.284,-0.97c-0.381,-0.343 -0.628,-0.666 -0.742,-0.971Zm-14.157,-14.842c-0.647,0.875 -1.256,1.827 -1.827,2.854c-0.571,1.028 -1.066,2.065 -1.484,3.111c-0.419,1.047 -0.742,2.055 -0.971,3.026c-0.228,0.97 -0.342,1.836 -0.342,2.597c0,0.914 0.152,1.789 0.456,2.626c0.305,0.837 0.647,1.313 1.028,1.427c1.713,-0.38 3.282,-1.094 4.71,-2.14c1.427,-1.047 2.663,-2.35 3.71,-3.911c1.047,-1.56 1.865,-3.33 2.455,-5.309c0.59,-1.979 0.885,-4.091 0.885,-6.336c0,-0.99 -0.058,-1.77 -0.172,-2.341c-0.114,-0.57 -0.304,-1.065 -0.571,-1.484c-1.674,0.495 -3.168,1.294 -4.481,2.398c-1.313,1.103 -2.445,2.264 -3.396,3.482Zm55.03,-5.766c-1.028,0.153 -2.093,0.571 -3.197,1.256c-1.104,0.685 -2.141,1.599 -3.111,2.74c-0.971,1.142 -1.855,2.474 -2.655,3.996c-0.799,1.523 -1.427,3.159 -1.883,4.91c3.044,-1.523 5.575,-3.397 7.592,-5.623c2.017,-2.227 3.101,-4.653 3.254,-7.279Z" style="fill:#f18f01;fill-rule:nonzero;"/>
</svg>
