<svg width="100%" height="100%" viewBox="0 0 500 150" version="1.1" xmlns="http://www.w3.org/2000/svg" xmlns:xlink="http://www.w3.org/1999/xlink" xml:space="preserve" xmlns:serif="http://www.serif.com/" style="fill-rule:evenodd;clip-rule:evenodd;stroke-linejoin:round;stroke-miterlimit:1.41421;">
    <path d="M336.491,98.387l0,1.818l-5.311,0.575c-0.095,4.544 -0.095,9.137 -0.095,13.825l0,4.306c0,8.994 3.444,11.913 8.85,11.913c6.124,0 9.186,-3.445 9.186,-12.822l-0.048,-17.079l-5.502,-0.718l0,-1.818l12.534,0l0,1.818l-4.688,0.622l-0.048,18.419c0,10.764 -5.071,14.974 -12.295,14.974c-7.607,0 -12.773,-4.114 -12.773,-14.113l0,-5.502c0,-4.64 0,-9.328 -0.048,-13.921l-4.402,-0.479l0,-1.818l14.64,0Zm95.825,25.691l1.339,6.554c1.675,0.909 3.254,1.292 5.502,1.292c5.071,0 8.372,-2.297 8.372,-6.554c0,-3.397 -1.913,-5.024 -6.602,-6.889l-1.961,-0.814c-5.454,-2.2 -9.042,-5.214 -9.042,-10.477c0,-6.076 5.071,-9.616 11.673,-9.616c3.54,0 6.315,1.101 8.611,2.775l-0.335,6.841l-2.727,0l-1.339,-6.267c-1.34,-0.765 -2.631,-1.052 -4.258,-1.052c-4.21,0 -7.32,2.105 -7.32,6.123c0,3.349 2.153,5.358 5.933,6.841l2.105,0.814c6.984,2.774 9.568,5.693 9.568,10.62c0,6.22 -5.071,9.951 -12.343,9.951c-3.971,0 -7.798,-1.244 -10.19,-2.775l0.335,-7.367l2.679,0Zm-184.091,-25.691l19.375,26.791l-0.096,-24.303l-5.597,-0.67l0,-1.818l12.391,0l0,1.818l-4.402,0.622l-0.047,32.963l-1.866,0l-21.385,-29.375l0.096,26.504l5.597,0.718l0,1.818l-12.391,0l0,-1.818l4.402,-0.622l0.095,-29.661l-0.526,-0.67l-3.732,-0.479l0,-1.818l8.086,0Zm119.554,0l19.375,26.791l-0.096,-24.303l-5.597,-0.67l0,-1.818l12.391,0l0,1.818l-4.402,0.622l-0.047,32.963l-1.866,0l-21.385,-29.375l0.096,26.504l5.597,0.718l0,1.818l-12.391,0l0,-1.818l4.402,-0.622l0.095,-29.661l-0.526,-0.67l-3.731,-0.479l0,-1.818l8.085,0Zm-77.694,0l28.752,0l0.335,9.329l-2.535,0l-1.483,-7.032l-8.229,0c-0.096,4.593 -0.096,9.281 -0.096,13.969l0,2.584c0,4.592 0,9.233 0.096,13.826l5.406,0.574l0,1.818l-15.787,0l0,-1.818l5.406,-0.574c0.095,-4.545 0.095,-9.138 0.095,-13.826l0,-2.584c0,-4.688 0,-9.376 -0.095,-13.969l-8.229,0l-1.435,7.032l-2.631,0l0.43,-9.329Zm107.738,0l25.977,0l0.287,9.234l-2.583,0l-1.388,-6.937l-12.438,0c-0.096,4.545 -0.096,9.137 -0.096,13.874l7.894,0l0.765,-5.167l2.153,0l0,12.343l-2.153,0l-0.717,-5.071l-7.942,0c0,5.166 0,9.855 0.096,14.495l13.443,0l1.387,-7.032l2.584,0l-0.287,9.329l-26.982,0l0,-1.818l4.879,-0.526c0.096,-4.593 0.096,-9.186 0.096,-13.874l0,-2.584c0,-4.688 0,-9.329 -0.096,-13.921l-4.879,-0.527l0,-1.818Zm-224.852,0l0,1.818l-5.119,0.527l7.655,16.505l7.75,-16.41l-4.928,-0.622l0,-1.818l11.865,0l0,1.818l-4.545,0.622l-9.09,18.754c0,4.497 0,8.037 0.096,11.482l5.406,0.574l0,1.818l-15.74,0l0,-1.818l5.406,-0.574c0.096,-3.349 0.096,-6.842 0.096,-11.291l-9.425,-19.136l-3.971,-0.431l0,-1.818l14.544,0Zm-39.66,0l0,1.818l-4.832,0.527c-0.096,4.497 -0.096,9.089 -0.096,13.73l17.08,0c0,-4.593 0,-9.185 -0.096,-13.73l-4.832,-0.527l0,-1.818l14.687,0l0,1.818l-4.88,0.527c-0.095,4.545 -0.095,9.233 -0.095,13.921l0,2.584c0,4.592 0,9.233 0.095,13.874l4.88,0.526l0,1.818l-14.687,0l0,-1.818l4.832,-0.526c0.096,-4.497 0.096,-9.138 0.096,-14.592l-17.08,0c0,5.358 0,10.047 0.096,14.592l4.832,0.526l0,1.818l-14.687,0l0,-1.818l4.88,-0.526c0.095,-4.593 0.095,-9.186 0.095,-13.874l0,-2.584c0,-4.688 0,-9.329 -0.095,-13.921l-4.88,-0.527l0,-1.818l14.687,0Zm80.755,29.088l11.338,-29.088l10.095,0l0,1.818l-4.88,0.527c-0.096,4.545 -0.096,9.233 -0.096,13.921l0,2.584c0,4.592 0,9.233 0.096,13.874l4.832,0.526l0,1.818l-14.257,0l0,-1.818l4.545,-0.526c0.096,-4.545 0.096,-9.138 0.096,-13.731l0.048,-14.065l-11.817,30.14l-2.248,0l-12.248,-30.044c0.096,4.592 0.287,10.716 0.287,10.955l0,16.601l4.545,0.67l0,1.818l-11.721,0l0,-1.818l4.737,-0.67l0.047,-30.187l-4.784,-0.575l0,-1.818l9.569,0l11.816,29.088Zm-143.124,-72.364c0.952,1.637 1.427,3.216 1.427,4.739c0,0.342 -0.028,0.656 -0.085,0.941c-0.057,0.286 -0.124,0.581 -0.2,0.885c-0.647,-0.076 -1.323,-0.133 -2.027,-0.171c-0.704,-0.038 -1.436,-0.057 -2.197,-0.057c-0.914,0 -1.837,0.028 -2.769,0.086c-0.932,0.057 -1.97,0.142 -3.111,0.256c-1.142,0.115 -2.417,0.267 -3.825,0.457c-1.408,0.19 -3.044,0.438 -4.909,0.742c-0.876,-0.304 -1.751,-0.904 -2.626,-1.798c-0.875,-0.894 -1.694,-1.969 -2.455,-3.225c0.381,-0.838 0.856,-1.875 1.427,-3.111c0.571,-1.237 1.237,-2.741 1.998,-4.51c0.761,-1.77 1.608,-3.844 2.541,-6.222c0.932,-2.379 1.931,-5.129 2.997,-8.249c0.685,-2.055 1.274,-3.863 1.769,-5.423c0.495,-1.561 0.942,-3.073 1.342,-4.539c0.399,-1.465 0.789,-2.997 1.17,-4.595c0.38,-1.598 0.799,-3.444 1.256,-5.537c1.522,0.304 2.845,0.866 3.967,1.684c1.123,0.818 2.198,1.988 3.225,3.511c-0.304,0.494 -0.704,1.293 -1.198,2.397c-0.495,1.104 -1.075,2.445 -1.741,4.025c-0.666,1.579 -1.399,3.368 -2.198,5.366c-0.799,1.998 -1.637,4.138 -2.512,6.422c-0.837,2.245 -1.655,4.357 -2.455,6.336c-0.799,1.979 -1.512,3.768 -2.14,5.366c-0.628,1.599 -1.132,2.969 -1.513,4.11c-0.381,1.142 -0.571,1.998 -0.571,2.569c0.609,-0.038 1.161,-0.076 1.656,-0.114c0.494,-0.038 1.008,-0.105 1.541,-0.2c0.533,-0.095 1.113,-0.209 1.741,-0.342c0.628,-0.134 1.38,-0.314 2.255,-0.543c0.761,-0.19 1.465,-0.352 2.112,-0.485c0.647,-0.133 1.284,-0.247 1.912,-0.342c0.628,-0.096 1.275,-0.172 1.941,-0.229c0.666,-0.057 1.418,-0.123 2.255,-0.2Zm86.655,-24.432c0.99,0.304 1.922,0.98 2.798,2.027c0.875,1.046 1.522,2.197 1.94,3.453c-0.418,1.028 -1.065,2.265 -1.94,3.711c-0.876,1.446 -1.751,2.921 -2.626,4.424c-0.876,1.503 -1.665,2.93 -2.369,4.281c-0.704,1.351 -1.114,2.464 -1.228,3.34c0.609,-0.647 1.285,-1.399 2.027,-2.255c0.742,-0.856 1.465,-1.713 2.169,-2.569c0.704,-0.856 1.361,-1.636 1.969,-2.341c0.609,-0.704 1.085,-1.227 1.428,-1.569c0.723,-0.761 1.579,-1.646 2.568,-2.655c0.99,-1.008 2.027,-1.96 3.112,-2.854c1.084,-0.894 2.178,-1.656 3.282,-2.283c1.104,-0.628 2.112,-0.942 3.025,-0.942c0.99,0 1.818,0.333 2.484,0.999c0.666,0.666 1.189,1.36 1.569,2.083c0,0.076 -0.142,0.181 -0.428,0.314c-0.285,0.133 -0.694,0.504 -1.227,1.113c-0.533,0.685 -1.132,1.627 -1.798,2.826c-0.666,1.199 -1.313,2.493 -1.941,3.882c-0.628,1.389 -1.151,2.807 -1.57,4.253c-0.419,1.446 -0.628,2.759 -0.628,3.939c0,0.951 0.124,1.56 0.371,1.826c0.248,0.267 0.6,0.4 1.056,0.4c0.419,0 0.857,-0.095 1.313,-0.286c0.457,-0.19 0.818,-0.285 1.085,-0.285c0.152,0.076 0.276,0.238 0.371,0.485c0.095,0.248 0.143,0.466 0.143,0.657c-0.305,0.266 -0.666,0.533 -1.085,0.799c-0.419,0.266 -0.856,0.514 -1.313,0.742c-0.457,0.228 -0.904,0.419 -1.341,0.571c-0.438,0.152 -0.828,0.228 -1.171,0.228c-1.103,0 -2.007,-0.162 -2.711,-0.485c-0.704,-0.323 -1.256,-0.752 -1.656,-1.284c-0.399,-0.533 -0.675,-1.171 -0.827,-1.913c-0.153,-0.742 -0.229,-1.532 -0.229,-2.369c0,-0.456 0.038,-0.97 0.114,-1.541c0.076,-0.571 0.229,-1.246 0.457,-2.027c0.228,-0.78 0.552,-1.712 0.971,-2.797c0.418,-1.084 0.951,-2.388 1.598,-3.91c-0.076,0 -0.59,0.266 -1.541,0.799c-0.952,0.533 -1.979,1.351 -3.083,2.455c-1.789,1.712 -3.397,3.406 -4.824,5.08c-1.427,1.675 -2.882,3.54 -4.367,5.595c-0.837,1.179 -1.57,2.178 -2.197,2.997c-0.628,0.818 -1.171,1.36 -1.627,1.627c-0.8,-0.457 -1.389,-1.095 -1.77,-1.913c-0.381,-0.818 -0.666,-1.665 -0.856,-2.54c0,-0.723 0.104,-1.637 0.314,-2.74c0.209,-1.104 0.494,-2.331 0.856,-3.682c0.361,-1.351 0.809,-2.769 1.341,-4.253c0.533,-1.484 1.123,-2.968 1.77,-4.453c1.446,-3.349 2.769,-5.975 3.967,-7.877c1.199,-1.903 1.951,-2.931 2.255,-3.083Zm-61.709,4.053c-0.152,2.36 -0.571,4.386 -1.256,6.08c-0.685,1.693 -1.665,3.177 -2.939,4.452c-1.275,1.275 -2.826,2.426 -4.653,3.454c-1.827,1.027 -3.958,2.017 -6.393,2.968c0,0.229 -0.01,0.467 -0.029,0.714c-0.019,0.247 -0.028,0.504 -0.028,0.771c0,0.494 0.038,1.008 0.114,1.541c0.076,0.533 0.209,1.027 0.399,1.484c0.191,0.457 0.457,0.828 0.799,1.113c0.343,0.286 0.781,0.428 1.313,0.428c1.028,0 2.036,-0.228 3.026,-0.685c0.989,-0.456 1.931,-1.018 2.826,-1.684c0.894,-0.666 1.731,-1.389 2.511,-2.169c0.781,-0.78 1.475,-1.494 2.084,-2.141c0.381,0.343 0.704,0.666 0.97,0.971c-1.712,2.283 -3.586,4.177 -5.622,5.68c-2.036,1.503 -3.968,2.464 -5.795,2.883c-2.625,-0.305 -4.671,-1.266 -6.136,-2.883c-1.465,-1.618 -2.198,-3.568 -2.198,-5.851c0,-1.561 0.219,-3.15 0.656,-4.767c0.438,-1.617 1.047,-3.178 1.827,-4.681c0.78,-1.503 1.694,-2.921 2.74,-4.253c1.047,-1.332 2.17,-2.493 3.368,-3.482c1.199,-0.99 2.436,-1.77 3.711,-2.341c1.275,-0.57 2.54,-0.856 3.796,-0.856c1.751,0.229 3.387,1.313 4.909,3.254Zm98.643,25.803c-0.608,-0.077 -1.246,-0.333 -1.912,-0.771c-0.666,-0.438 -1.094,-0.923 -1.284,-1.456c0,-0.456 0.066,-1.046 0.199,-1.769c0.134,-0.724 0.295,-1.456 0.486,-2.198c0.19,-0.742 0.38,-1.446 0.571,-2.112c0.19,-0.666 0.323,-1.171 0.399,-1.513c0.457,0 1.037,0.114 1.741,0.342c0.704,0.229 1.427,0.543 2.169,0.942c0.743,0.4 1.447,0.857 2.113,1.37c0.666,0.514 1.17,1.037 1.512,1.57c-0.342,0.761 -0.78,1.484 -1.313,2.169c-0.532,0.685 -1.094,1.285 -1.684,1.799c-0.59,0.513 -1.151,0.913 -1.684,1.198c-0.532,0.286 -0.97,0.429 -1.313,0.429Zm-13.757,0c-0.609,-0.077 -1.246,-0.333 -1.912,-0.771c-0.666,-0.438 -1.095,-0.923 -1.285,-1.456c0,-0.456 0.067,-1.046 0.2,-1.769c0.133,-0.724 0.295,-1.456 0.485,-2.198c0.19,-0.742 0.381,-1.446 0.571,-2.112c0.19,-0.666 0.323,-1.171 0.4,-1.513c0.456,0 1.037,0.114 1.741,0.342c0.704,0.229 1.427,0.543 2.169,0.942c0.742,0.4 1.446,0.857 2.112,1.37c0.666,0.514 1.17,1.037 1.513,1.57c-0.343,0.761 -0.78,1.484 -1.313,2.169c-0.533,0.685 -1.094,1.285 -1.684,1.799c-0.59,0.513 -1.151,0.913 -1.684,1.198c-0.533,0.286 -0.971,0.429 -1.313,0.429Zm27.515,0c-0.609,-0.077 -1.246,-0.333 -1.912,-0.771c-0.666,-0.438 -1.095,-0.923 -1.285,-1.456c0,-0.456 0.067,-1.046 0.2,-1.769c0.133,-0.724 0.295,-1.456 0.485,-2.198c0.19,-0.742 0.381,-1.446 0.571,-2.112c0.19,-0.666 0.324,-1.171 0.4,-1.513c0.456,0 1.037,0.114 1.741,0.342c0.704,0.229 1.427,0.543 2.169,0.942c0.742,0.4 1.446,0.857 2.112,1.37c0.666,0.514 1.17,1.037 1.513,1.57c-0.343,0.761 -0.78,1.484 -1.313,2.169c-0.533,0.685 -1.094,1.285 -1.684,1.799c-0.59,0.513 -1.151,0.913 -1.684,1.198c-0.533,0.286 -0.971,0.429 -1.313,0.429Zm-84.315,-3.311c0.19,-1.104 0.523,-2.56 0.999,-4.367c0.476,-1.808 1.037,-3.73 1.684,-5.766c0.647,-2.036 1.332,-4.082 2.055,-6.137c0.723,-2.055 1.427,-3.9 2.112,-5.537c0.495,-1.18 0.933,-2.103 1.313,-2.769c0.381,-0.666 0.8,-1.227 1.256,-1.684c0.533,0.077 1.085,0.21 1.656,0.4c0.571,0.19 1.122,0.419 1.655,0.685c0.533,0.266 1.009,0.542 1.427,0.828c0.419,0.285 0.742,0.561 0.971,0.828c-1.028,1.217 -1.932,2.606 -2.712,4.167c-0.78,1.56 -1.57,3.558 -2.369,5.994c2.055,-1.827 3.872,-3.578 5.452,-5.252c1.579,-1.675 3.054,-3.539 4.424,-5.594c0.228,-0.191 0.628,-0.286 1.199,-0.286c0.532,0 1.046,0.086 1.541,0.257c0.495,0.171 0.837,0.409 1.028,0.714c-0.685,1.826 -1.028,3.634 -1.028,5.423c0,1.674 0.247,2.93 0.742,3.767c-0.038,0.229 -0.295,0.666 -0.771,1.313c-0.475,0.647 -0.999,1.256 -1.569,1.827c-1.028,-0.533 -1.941,-1.265 -2.74,-2.198c-0.8,-0.932 -1.39,-1.95 -1.77,-3.054c-1.789,1.256 -3.311,2.483 -4.567,3.682c-1.256,1.199 -2.331,2.531 -3.225,3.996c-0.895,1.465 -1.656,3.149 -2.284,5.052c-0.628,1.903 -1.227,4.167 -1.798,6.793c-0.342,-0.038 -0.751,-0.162 -1.227,-0.371c-0.476,-0.209 -0.952,-0.466 -1.427,-0.771c-0.476,-0.304 -0.904,-0.627 -1.285,-0.97c-0.38,-0.342 -0.628,-0.666 -0.742,-0.97Zm-5.765,-21.921c0.38,0 0.827,0.067 1.341,0.2c0.514,0.133 0.98,0.304 1.399,0.513c0.418,0.21 0.77,0.429 1.056,0.657c0.285,0.228 0.428,0.438 0.428,0.628c-0.761,1.598 -1.465,3.206 -2.112,4.824c-0.647,1.617 -1.199,3.168 -1.656,4.652c-0.456,1.484 -0.808,2.873 -1.056,4.167c-0.247,1.294 -0.371,2.417 -0.371,3.368c0,1.066 0.114,1.951 0.343,2.655c0.228,0.704 0.609,1.208 1.141,1.512c-0.456,0.305 -1.046,0.552 -1.769,0.743c-0.723,0.19 -1.37,0.285 -1.941,0.285c-2.055,0 -3.083,-1.408 -3.083,-4.224c0,-2.17 0.723,-5.138 2.169,-8.906c-0.761,1.751 -1.636,3.397 -2.625,4.938c-0.99,1.542 -1.998,2.902 -3.026,4.082c-1.027,1.18 -2.065,2.141 -3.111,2.883c-1.047,0.742 -2.008,1.189 -2.883,1.341c-1.408,-0.076 -2.55,-0.751 -3.425,-2.026c-0.875,-1.275 -1.313,-2.902 -1.313,-4.881c0,-2.131 0.457,-4.377 1.37,-6.736c0.913,-2.36 2.084,-4.548 3.511,-6.565c1.427,-2.017 2.978,-3.701 4.652,-5.052c1.675,-1.351 3.292,-2.065 4.852,-2.141c0.381,0.114 0.809,0.343 1.285,0.685c0.476,0.343 0.932,0.742 1.37,1.199c0.438,0.457 0.809,0.923 1.113,1.399c0.305,0.475 0.476,0.885 0.514,1.227c-1.522,0.228 -3.092,0.97 -4.71,2.226c-1.617,1.256 -3.082,2.769 -4.395,4.539c-1.313,1.769 -2.388,3.663 -3.226,5.68c-0.837,2.017 -1.255,3.9 -1.255,5.651c0,0.723 0.266,1.18 0.799,1.37c1.103,-0.228 2.378,-1.17 3.825,-2.826c1.446,-1.655 3.196,-4.214 5.251,-7.678c0.381,-0.685 0.809,-1.446 1.285,-2.283c0.475,-0.837 0.961,-1.713 1.455,-2.626c0.495,-0.913 0.98,-1.836 1.456,-2.769c0.476,-0.932 0.923,-1.836 1.342,-2.711Zm-26.26,1.313c-1.027,0.152 -2.093,0.571 -3.196,1.256c-1.104,0.685 -2.141,1.598 -3.111,2.74c-0.971,1.142 -1.856,2.474 -2.655,3.996c-0.799,1.522 -1.427,3.158 -1.884,4.909c3.045,-1.522 5.576,-3.396 7.593,-5.623c2.017,-2.226 3.101,-4.652 3.253,-7.278Z" style="fill:#f18f01;fill-rule:nonzero;"/>
</svg>
