<?xml version="1.0" encoding="UTF-8" standalone="no"?>
<!DOCTYPE svg PUBLIC "-//W3C//DTD SVG 1.1//EN" "http://www.w3.org/Graphics/SVG/1.1/DTD/svg11.dtd">
<svg width="100%" height="100%" viewBox="0 0 1800 750" version="1.1" xmlns="http://www.w3.org/2000/svg" xmlns:xlink="http://www.w3.org/1999/xlink" xml:space="preserve" xmlns:serif="http://www.serif.com/" style="fill-rule:evenodd;clip-rule:evenodd;stroke-linejoin:round;stroke-miterlimit:1.41421;">
    <path d="M1323.74,535.572l0,8.075l-21.676,2.338c-0.425,20.188 -0.425,40.801 -0.425,61.626l0,35.701c0,25.713 -0.637,37.826 -3.187,49.514c-4.675,23.588 -24.013,35.913 -43.776,35.913c-8.926,0 -17.426,-2.337 -19.976,-10.625c1.275,-8.075 6.8,-11.263 14.025,-11.263c5.526,0 10.201,1.913 16.576,7.013l6.162,5.312c7.013,-6.162 10.413,-15.725 10.413,-32.3c0,-13.601 -0.85,-36.339 -1.912,-140.891l-23.801,-2.338l0,-8.075l67.577,0Zm-158.529,-3.613c-36.551,0 -71.19,30.388 -71.19,81.39c0,52.914 34.426,81.389 71.19,81.389c36.551,0 70.764,-30.175 70.764,-81.389c0,-52.489 -34.638,-81.39 -70.764,-81.39Zm443.924,117.303l-0.425,34.214c-14.451,7.862 -29.964,11.262 -46.539,11.262c-46.964,0 -79.052,-32.938 -79.052,-81.389c0,-47.601 33.576,-81.39 79.052,-81.39c13.388,0 29.113,2.55 44.413,11.476l0.426,34.213l-12.751,0l-5.737,-29.751c-8.076,-4.037 -15.938,-5.738 -23.801,-5.738c-32.088,0 -57.589,24.864 -57.589,71.19c0,46.538 23.376,71.189 56.739,71.189c8.713,0 17.85,-1.487 26.776,-5.738l5.737,-29.538l12.751,0Zm-598.203,-113.69c35.276,0 56.101,15.088 56.101,40.801c0,18.275 -13.388,34.638 -39.951,39.313c14.663,3.188 22.526,11.476 27.838,29.326l10.838,36.551l18.063,1.7l0,8.075c-4.462,1.488 -10.413,2.338 -17.638,2.338c-14.45,0 -21.038,-4.038 -23.588,-14.876l-9.563,-36.975c-4.675,-18.913 -12.325,-23.163 -31.663,-23.164l-12.325,0c0,21.676 0,42.077 0.425,62.052l21.675,2.55l0,8.075l-65.451,0l0,-8.075l21.675,-2.337c0.425,-20.401 0.425,-40.802 0.425,-61.627l0,-11.475c0,-20.826 0,-41.439 -0.425,-61.839l-21.675,-2.338l0,-8.075l65.239,0Zm-389.948,0l86.065,119.003l-0.425,-107.953l-24.863,-2.975l0,-8.075l55.039,0l0,8.075l-19.551,2.763l-0.212,146.416l-8.288,0l-94.99,-130.479l0.425,117.728l24.863,3.188l0,8.075l-55.039,0l0,-8.075l19.551,-2.762l0.425,-131.754l-2.338,-2.975l-16.575,-2.125l0,-8.075l35.913,0Zm-151.728,129.203l50.363,-129.203l44.839,0l0,8.075l-21.676,2.338c-0.425,20.188 -0.425,41.013 -0.425,61.839l0,11.475c0,20.4 0,41.013 0.425,61.627l21.463,2.337l0,8.075l-63.326,0l0,-8.075l20.188,-2.337c0.425,-20.188 0.425,-40.589 0.425,-60.99l0.212,-62.476l-52.488,133.878l-9.988,0l-54.402,-133.453c0.425,20.4 1.275,47.601 1.275,48.664l0,73.739l20.188,2.975l0,8.075l-52.063,0l0,-8.075l21.038,-2.975l0.212,-134.091l-21.25,-2.55l0,-8.075l42.501,0l52.489,129.203Zm-358.71,-129.203l0,8.075l-21.463,2.338c-0.425,19.975 -0.425,40.376 -0.425,60.989l75.865,0c0,-20.401 0,-40.802 -0.425,-60.989l-21.463,-2.338l0,-8.075l65.239,0l0,8.075l-21.676,2.338c-0.425,20.188 -0.425,41.013 -0.425,61.839l0,11.475c0,20.4 0,41.013 0.425,61.627l21.676,2.337l0,8.075l-65.239,0l0,-8.075l21.463,-2.337c0.425,-19.976 0.425,-40.589 0.425,-64.815l-75.865,0c0,23.801 0,44.627 0.425,64.815l21.463,2.337l0,8.075l-65.239,0l0,-8.075l21.676,-2.337c0.425,-20.401 0.425,-40.802 0.425,-61.627l0,-11.475c0,-20.826 0,-41.439 -0.425,-61.839l-21.676,-2.338l0,-8.075l65.239,0Zm176.167,0l0,8.075l-22.738,2.338l34.001,73.314l34.426,-72.889l-21.888,-2.763l0,-8.075l52.701,0l0,8.075l-20.188,2.763l-40.376,83.302c0,19.975 0,35.701 0.425,51.001l24.013,2.55l0,8.075l-69.914,0l0,-8.075l24.013,-2.55c0.425,-14.875 0.425,-30.388 0.425,-50.151l-41.863,-85.002l-17.638,-1.913l0,-8.075l64.601,0Zm586.515,0c39.101,0 58.439,18.488 58.439,46.113c0,25.926 -18.275,47.389 -65.239,47.389l-12.325,0c0,17.213 0,34.001 0.425,51.639l22.1,2.55l0,8.075l-65.876,0l0,-8.075l21.675,-2.337c0.425,-20.401 0.425,-40.802 0.425,-61.627l0,-11.475c0,-20.826 0,-41.439 -0.425,-61.839l-21.675,-2.338l0,-8.075l62.476,0Zm752.269,0l127.716,0l1.488,41.438l-11.263,0l-6.588,-31.238l-36.551,0c-0.425,20.401 -0.425,41.226 -0.425,62.052l0,11.475c0,20.4 0,41.013 0.425,61.414l24.013,2.55l0,8.075l-70.126,0l0,-8.075l24.013,-2.55c0.425,-20.188 0.425,-40.589 0.425,-61.414l0,-11.475c0,-20.826 0,-41.651 -0.425,-62.052l-36.551,0l-6.375,31.238l-11.688,0l1.912,-41.438Zm-283.482,0l115.391,0l1.275,41.013l-11.476,0l-6.162,-30.813l-55.252,0c-0.425,20.189 -0.425,40.589 -0.425,61.627l35.064,0l3.4,-22.951l9.563,0l0,54.826l-9.563,0l-3.188,-22.525l-35.276,0c0,22.951 0,43.776 0.425,64.389l59.714,0l6.163,-31.238l11.475,0l-1.275,41.438l-119.853,0l0,-8.075l21.676,-2.337c0.425,-20.401 0.425,-40.802 0.425,-61.627l0,-11.475c0,-20.826 0,-41.439 -0.425,-61.839l-21.676,-2.338l0,-8.075Zm-223.98,77.777c0,-36.551 14.662,-71.19 47.176,-71.19c32.301,0 46.538,34.639 46.538,71.19c0,36.763 -14.237,71.402 -46.538,71.402c-32.514,0 -47.176,-34.639 -47.176,-71.402Zm-248.632,-68.639l-14.875,0c-0.425,20.613 -0.425,41.863 -0.425,63.114l0,11.9l14.875,0c29.114,0 40.801,-15.513 40.801,-38.039c0,-23.587 -12.537,-36.975 -40.376,-36.975Zm140.254,0l-20.188,0c-0.425,20.613 -0.425,41.013 -0.425,65.026l18.913,0c24.863,0 37.188,-14.238 37.188,-33.576c0,-19.975 -11.05,-31.45 -35.488,-31.45Zm-34.572,-348.611l0,12.159l-35.516,3.839c-0.64,30.397 -0.64,61.113 -0.64,92.469l0,28.797c0,60.152 23.038,79.67 59.193,79.67c40.955,0 61.433,-23.037 61.433,-85.75l-0.32,-114.226l-36.796,-4.799l0,-12.159l83.83,0l0,12.159l-31.356,4.159l-0.32,123.185c0,71.992 -33.916,100.148 -82.23,100.148c-50.874,0 -85.43,-27.517 -85.43,-94.388l0,-36.796c0,-31.036 0,-62.392 -0.32,-93.109l-29.436,-3.199l0,-12.159l97.908,0Zm-463.624,171.819l8.959,43.835c11.199,6.079 21.758,8.639 36.796,8.639c33.916,0 55.993,-15.358 55.993,-43.835c0,-22.717 -12.798,-33.596 -44.155,-46.074l-13.118,-5.439c-36.476,-14.719 -60.473,-34.876 -60.473,-70.072c0,-40.635 33.916,-64.312 78.071,-64.312c23.677,0 42.235,7.359 57.593,18.558l-2.24,45.754l-18.238,0l-8.959,-41.915c-8.958,-5.119 -17.597,-7.039 -28.476,-7.039c-28.157,0 -48.954,14.078 -48.954,40.955c0,22.397 14.398,35.836 39.675,45.755l14.078,5.439c46.715,18.558 63.993,38.075 63.993,71.031c0,41.595 -33.916,66.552 -82.55,66.552c-26.557,0 -52.154,-8.319 -68.152,-18.558l2.24,-49.274l17.917,0Zm714.153,-171.819c53.114,0 84.47,22.718 84.47,61.433c0,27.516 -20.157,52.153 -60.153,59.193c22.078,4.799 33.916,17.278 41.915,44.154l16.318,55.034l27.197,2.559l0,12.159c-6.719,2.239 -15.678,3.519 -26.557,3.519c-21.757,0 -31.676,-6.079 -35.515,-22.397l-14.399,-55.673c-7.039,-28.477 -18.557,-34.876 -47.674,-34.876l-18.558,0c0,32.636 0,63.353 0.64,93.429l32.636,3.839l0,12.159l-98.548,0l0,-12.159l32.636,-3.519c0.64,-30.717 0.64,-61.433 0.64,-92.789l0,-17.278c0,-31.356 0,-62.392 -0.64,-93.109l-32.636,-3.519l0,-12.159l98.228,0Zm200.616,0l0,12.159l-34.236,3.519l51.194,110.387l51.834,-109.747l-32.956,-4.159l0,-12.159l79.35,0l0,12.159l-30.396,4.159l-60.793,125.425c0,30.076 0,53.754 0.64,76.791l36.156,3.839l0,12.159l-105.268,0l0,-12.159l36.156,-3.839c0.64,-22.398 0.64,-45.755 0.64,-75.511l-63.032,-127.984l-26.557,-2.88l0,-12.159l97.268,0Zm-1056.19,-1.599l75.51,220.773l27.517,3.199l0,12.159l-95.348,0l0,-12.159l34.556,-4.159l-20.478,-61.433l-81.27,0l-20.158,61.113l34.236,4.479l0,12.159l-78.07,0l0,-12.159l28.476,-4.479l74.551,-219.493l20.478,0Zm399.631,1.599c49.914,0.001 76.471,23.678 76.471,56.953c0,24.317 -15.998,47.035 -55.674,55.034c47.675,6.719 67.512,29.756 67.512,58.553c0,31.996 -25.916,63.992 -92.788,63.992l-95.669,0l0,-12.159l32.636,-3.519c0.64,-31.037 0.64,-62.393 0.64,-93.749l0,-16.958c0,-31.036 0,-61.752 -0.64,-92.469l-32.636,-3.519l0,-12.159l100.148,0Zm-14.718,120.306l-20.158,0c0,36.476 0,68.472 0.64,100.147l23.037,0c43.835,0 66.232,-17.598 66.232,-49.593c0,-33.596 -21.117,-50.554 -69.751,-50.554Zm-367.635,22.717l-36.476,-108.787l-35.836,108.787l72.312,0Zm836.378,-129.264l-30.397,0c-0.64,31.036 -0.64,61.752 -0.64,97.908l28.477,0c37.436,-0.001 55.993,-21.438 55.993,-50.554c0,-30.076 -16.638,-47.354 -53.433,-47.354Zm-463.624,0l-24.637,0c-0.64,30.076 -0.64,61.112 -0.64,92.148l18.558,0c42.235,0 61.433,-15.038 61.433,-47.674c0,-31.356 -17.918,-44.474 -54.714,-44.474Zm126.032,-178.25l0,4.53l-12.041,1.311c-0.238,11.207 -0.238,22.651 -0.238,34.215l42.56,0c0,-11.445 0,-22.889 -0.238,-34.215l-12.041,-1.311l0,-4.53l36.599,0l0,4.53l-12.16,1.311c-0.238,11.326 -0.238,23.009 -0.238,34.692l0,6.438c0,11.445 0,23.009 0.238,34.573l12.16,1.311l0,4.53l-36.599,0l0,-4.53l12.041,-1.311c0.238,-11.207 0.238,-22.77 0.238,-36.361l-42.56,0c0,13.352 0,25.035 0.238,36.361l12.041,1.311l0,4.53l-36.599,0l0,-4.53l12.16,-1.311c0.238,-11.445 0.238,-22.89 0.238,-34.573l0,-6.438c0,-11.683 0,-23.247 -0.238,-34.692l-12.16,-1.311l0,-4.53l36.599,0Zm-117.547,0l71.649,0l0.834,23.247l-6.318,0l-3.696,-17.525l-20.505,0c-0.239,11.445 -0.239,23.128 -0.239,34.811l0,6.438c0,11.445 0,23.009 0.239,34.453l13.471,1.431l0,4.53l-39.341,0l0,-4.53l13.471,-1.431c0.239,-11.325 0.239,-22.77 0.239,-34.453l0,-6.438c0,-11.683 0,-23.366 -0.239,-34.811l-20.505,0l-3.576,17.525l-6.557,0l1.073,-23.247Zm183.831,0l64.735,0l0.715,23.008l-6.438,0l-3.457,-17.286l-30.996,0c-0.239,11.326 -0.239,22.771 -0.239,34.573l19.671,0l1.908,-12.876l5.364,0l0,30.758l-5.364,0l-1.789,-12.637l-19.79,0c0,12.876 0,24.559 0.239,36.123l33.5,0l3.457,-17.525l6.438,0l-0.716,23.247l-67.238,0l0,-4.53l12.16,-1.311c0.239,-11.445 0.239,-22.89 0.239,-34.573l0,-6.438c0,-11.683 0,-23.247 -0.239,-34.692l-12.16,-1.311l0,-4.53Z" style="fill:#fff;fill-rule:nonzero;"/>
</svg>
