<?xml version="1.0" encoding="UTF-8" standalone="no"?>
<!DOCTYPE svg PUBLIC "-//W3C//DTD SVG 1.1//EN" "http://www.w3.org/Graphics/SVG/1.1/DTD/svg11.dtd">
<svg width="100%" height="100%" viewBox="0 0 1500 100" version="1.1" xmlns="http://www.w3.org/2000/svg" xmlns:xlink="http://www.w3.org/1999/xlink" xml:space="preserve" xmlns:serif="http://www.serif.com/" style="fill-rule:evenodd;clip-rule:evenodd;stroke-linejoin:round;stroke-miterlimit:1.41421;">
    <path d="M1299.03,15.582l0,3.42l-9.18,0.99c-0.18,8.55 -0.18,17.28 -0.18,26.1l0,15.12c0,10.89 -0.27,16.02 -1.35,20.97c-1.98,9.99 -10.17,15.21 -18.54,15.21c-3.78,0 -7.38,-0.99 -8.46,-4.5c0.54,-3.42 2.88,-4.77 5.94,-4.77c2.34,0 4.32,0.81 7.02,2.97l2.61,2.25c2.97,-2.61 4.41,-6.66 4.41,-13.68c0,-5.76 -0.36,-15.39 -0.81,-59.67l-10.08,-0.99l0,-3.42l28.62,0Zm-785.141,-10.934l0,4.559l-13.32,1.441c-0.24,11.4 -0.24,22.919 -0.24,34.68l0,10.8c0,22.56 8.64,29.88 22.2,29.88c15.36,0 23.04,-8.64 23.04,-32.16l-0.12,-42.84l-13.8,-1.801l0,-4.559l31.44,0l0,4.559l-11.76,1.561l-0.12,46.199c0,27 -12.72,37.561 -30.84,37.561c-19.08,0 -32.04,-10.321 -32.04,-35.4l0,-13.8c0,-11.64 0,-23.4 -0.12,-34.92l-11.04,-1.201l0,-4.559l36.72,0Zm-173.88,64.439l3.36,16.441c4.2,2.28 8.16,3.24 13.8,3.24c12.72,0 21,-5.76 21,-16.441c0,-8.519 -4.8,-12.599 -16.56,-17.279l-4.92,-2.04c-13.68,-5.52 -22.68,-13.08 -22.68,-26.28c0,-15.24 12.72,-24.12 29.28,-24.12c8.88,0 15.84,2.76 21.6,6.96l-0.84,17.16l-6.84,0l-3.36,-15.72c-3.36,-1.921 -6.6,-2.641 -10.68,-2.641c-10.56,0 -18.36,5.281 -18.36,15.361c0,8.4 5.4,13.44 14.88,17.16l5.28,2.04c17.52,6.96 24,14.279 24,26.64c0,15.6 -12.72,24.96 -30.96,24.96c-9.96,0 -19.56,-3.12 -25.56,-6.96l0.84,-18.481l6.72,0Zm267.84,-64.439c19.92,0 31.68,8.52 31.68,23.04c0,10.32 -7.56,19.56 -22.56,22.2c8.28,1.8 12.72,6.48 15.72,16.56l6.12,20.639l10.2,0.961l0,4.559c-2.52,0.841 -5.88,1.321 -9.96,1.321c-8.16,0 -11.88,-2.28 -13.32,-8.4l-5.4,-20.88c-2.64,-10.68 -6.96,-13.08 -17.88,-13.08l-6.96,0c0,12.24 0,23.76 0.24,35.039l12.24,1.441l0,4.559l-36.96,0l0,-4.559l12.24,-1.32c0.24,-11.52 0.24,-23.04 0.24,-34.8l0,-6.48c0,-11.76 0,-23.4 -0.24,-34.92l-12.24,-1.32l0,-4.56l36.84,0Zm75.24,0l0,4.56l-12.84,1.32l19.2,41.4l19.44,-41.16l-12.36,-1.56l0,-4.56l29.76,0l0,4.56l-11.4,1.56l-22.8,47.04c0,11.28 0,20.16 0.24,28.799l13.56,1.441l0,4.559l-39.48,0l0,-4.559l13.56,-1.441c0.24,-8.399 0.24,-17.159 0.24,-28.319l-23.64,-48l-9.96,-1.08l0,-4.56l36.48,0Zm-396.12,-0.6l28.32,82.8l10.32,1.2l0,4.559l-35.76,0l0,-4.559l12.96,-1.56l-7.68,-23.04l-30.48,0l-7.56,22.92l12.84,1.68l0,4.559l-29.28,0l0,-4.559l10.68,-1.68l27.96,-82.32l7.68,0Zm149.88,0.6c18.72,0 28.68,8.88 28.68,21.36c0,9.12 -6,17.64 -20.88,20.64c17.88,2.52 25.32,11.16 25.32,21.96c0,11.999 -9.72,23.999 -34.8,23.999l-35.88,0.001l0,-4.56l12.24,-1.32c0.24,-11.64 0.24,-23.4 0.24,-35.16l0,-6.36c0,-11.64 0,-23.16 -0.24,-34.68l-12.24,-1.32l0,-4.56l37.56,0Zm-5.52,45.12l-7.56,0c0,13.68 0,25.68 0.24,37.56l8.64,0c16.44,-0.001 24.84,-6.601 24.84,-18.6c0,-12.6 -7.92,-18.96 -26.16,-18.96Zm800.561,-35.716c-15.48,0.001 -30.15,12.871 -30.15,34.47c0,22.411 14.58,34.471 30.15,34.471c15.48,-0.001 29.97,-12.78 29.97,-34.471c0,-22.229 -14.67,-34.469 -29.97,-34.469Zm188.01,49.68l-0.18,14.49c-6.12,3.33 -12.69,4.77 -19.71,4.77c-19.89,0 -33.48,-13.95 -33.48,-34.471c0,-20.159 14.22,-34.469 33.48,-34.469c5.67,0 12.33,1.08 18.81,4.86l0.18,14.49l-5.4,0l-2.43,-12.6c-3.42,-1.71 -6.75,-2.43 -10.08,-2.43c-13.59,0 -24.39,10.529 -24.39,30.149c0,19.711 9.9,30.151 24.03,30.151c3.69,0 7.56,-0.63 11.34,-2.43l2.43,-12.51l5.4,0Zm-253.35,-48.15c14.94,0 23.76,6.39 23.76,17.28c0,7.74 -5.67,14.67 -16.92,16.65c6.21,1.35 9.54,4.86 11.79,12.42l4.59,15.48l7.65,0.72l0,3.42c-1.89,0.63 -4.41,0.99 -7.47,0.99c-6.12,0 -8.91,-1.71 -9.99,-6.3l-4.05,-15.66c-1.98,-8.01 -5.22,-9.81 -13.41,-9.811l-5.22,0c0,9.181 0,17.821 0.18,26.281l9.18,1.08l0,3.42l-27.72,0l0,-3.42l9.18,-0.99c0.18,-8.64 0.18,-17.28 0.18,-26.1l0,-4.86c0,-8.82 0,-17.55 -0.18,-26.19l-9.18,-0.99l0,-3.42l27.63,0Zm-165.15,0l36.45,50.4l-0.18,-45.721l-10.53,-1.259l0,-3.42l23.31,0l0,3.42l-8.28,1.17l-0.09,62.01l-3.51,0l-40.23,-55.26l0.18,49.86l10.53,1.35l0,3.42l-23.31,0l0,-3.42l8.28,-1.17l0.18,-55.8l-0.99,-1.261l-7.02,-0.899l0,-3.42l15.21,0Zm-843.352,0l48.87,0l0.54,17.37l-4.86,0l-2.61,-13.05l-23.4,0c-0.18,8.55 -0.18,17.19 -0.18,26.1l14.85,0l1.44,-9.72l4.05,0l0,23.22l-4.05,0l-1.35,-9.54l-14.94,0c0,9.72 0,18.54 0.18,27.27l25.29,0l2.61,-13.23l4.86,0l-0.54,17.55l-50.76,0l0,-3.42l9.18,-0.99c0.18,-8.64 0.18,-17.28 0.18,-26.1l0,-4.86c0,-8.82 0,-17.55 -0.18,-26.19l-9.18,-0.99l0,-3.42Zm-50.04,0l0,3.42l-9.09,0.99c-0.18,8.46 -0.18,17.1 -0.18,25.83l32.13,0c0,-8.641 0,-17.281 -0.18,-25.83l-9.09,-0.99l0,-3.42l27.63,0l0,3.42l-9.18,0.99c-0.18,8.55 -0.18,17.37 -0.18,26.19l0,4.86c0,8.64 0,17.37 0.18,26.1l9.18,0.99l0,3.42l-27.63,0l0,-3.42l9.09,-0.99c0.18,-8.46 0.18,-17.19 0.18,-27.45l-32.13,0c0,10.08 0,18.9 0.18,27.45l9.09,0.99l0,3.42l-27.63,0l0,-3.42l9.18,-0.99c0.18,-8.64 0.18,-17.28 0.18,-26.1l0,-4.86c0,-8.82 0,-17.55 -0.18,-26.19l-9.18,-0.99l0,-3.42l27.63,0Zm-88.74,0l54.09,0l0.63,17.55l-4.77,0l-2.79,-13.23l-15.48,0c-0.18,8.64 -0.18,17.46 -0.18,26.28l0,4.86c0,8.64 0,17.37 0.18,26.01l10.17,1.08l0,3.42l-29.7,0l0,-3.42l10.17,-1.08c0.18,-8.55 0.18,-17.19 0.18,-26.01l0,-4.86c0,-8.82 0,-17.64 -0.18,-26.28l-15.48,0l-2.7,13.23l-4.95,0l0.81,-17.55Zm1407.56,0l54.09,0l0.63,17.55l-4.77,0l-2.79,-13.231l-15.48,0c-0.18,8.641 -0.18,17.461 -0.18,26.281l0,4.86c0,8.64 0,17.37 0.18,26.01l10.17,1.08l0,3.42l-29.7,0l0,-3.42l10.17,-1.08c0.18,-8.55 0.18,-17.19 0.18,-26.01l0,-4.86c0,-8.82 0,-17.64 -0.18,-26.281l-15.48,0l-2.7,13.231l-4.95,0l0.81,-17.55Zm-489.69,54.72l21.33,-54.72l18.99,0l0,3.42l-9.18,0.99c-0.18,8.55 -0.18,17.37 -0.18,26.19l0,4.86c0,8.64 0,17.37 0.18,26.1l9.09,0.99l0,3.42l-26.82,0l0,-3.42l8.55,-0.99c0.18,-8.55 0.18,-17.19 0.18,-25.83l0.09,-26.46l-22.23,56.7l-4.23,0l-23.04,-56.52c0.18,8.64 0.54,20.16 0.54,20.609l0,31.231l8.55,1.26l0,3.42l-22.05,0l0,-3.421l8.91,-1.259l0.09,-56.79l-9,-1.08l0,-3.42l18,0l22.23,54.72Zm-151.92,-54.72l0,3.419l-9.09,0.991c-0.18,8.46 -0.18,17.1 -0.18,25.83l32.13,0c0,-8.641 0,-17.281 -0.18,-25.83l-9.09,-0.991l0,-3.419l27.63,0l0,3.419l-9.18,0.991c-0.18,8.55 -0.18,17.37 -0.18,26.19l0,4.86c0,8.64 0,17.37 0.18,26.099l9.18,0.99l0,3.421l-27.63,0l0,-3.421l9.09,-0.99c0.18,-8.459 0.18,-17.189 0.18,-27.45l-32.13,0.001c0,10.08 0,18.9 0.18,27.449l9.09,0.99l0,3.421l-27.63,0l0,-3.421l9.18,-0.99c0.18,-8.639 0.18,-17.279 0.18,-26.099l0,-4.86c0,-8.82 0,-17.551 -0.18,-26.19l-9.18,-0.99l0,-3.42l27.63,0Zm74.61,0l0,3.42l-9.63,0.99l14.4,31.05l14.58,-30.87l-9.27,-1.17l0,-3.42l22.32,0l0,3.42l-8.55,1.17l-17.1,35.28c0,8.46 0,15.12 0.18,21.6l10.17,1.079l0,3.421l-29.61,0l0,-3.421l10.17,-1.079c0.18,-6.3 0.18,-12.87 0.18,-21.24l-17.73,-36l-7.47,-0.81l0,-3.42l27.36,0Zm446.94,0l48.87,0l0.54,17.37l-4.86,0l-2.61,-13.051l-23.4,0c-0.18,8.551 -0.18,17.191 -0.18,26.101l14.85,0l1.44,-9.72l4.05,0l0,23.22l-4.05,0l-1.35,-9.54l-14.94,0c0,9.72 0,18.54 0.18,27.27l25.29,0l2.61,-13.23l4.86,0l-0.54,17.55l-50.76,0l0,-3.42l9.18,-0.99c0.18,-8.64 0.18,-17.28 0.18,-26.1l0,-4.86c0,-8.82 0,-17.55 -0.18,-26.19l-9.18,-0.99l0,-3.42Zm-198.54,0c16.56,0 24.75,7.83 24.75,19.53c0,10.979 -7.74,20.069 -27.63,20.07l-5.22,0c0,7.29 0,14.4 0.18,21.87l9.36,1.08l0,3.42l-27.9,0l0,-3.42l9.18,-0.99c0.18,-8.64 0.18,-17.28 0.18,-26.1l0,-4.86c0,-8.82 0,-17.55 -0.18,-26.19l-9.18,-0.99l0,-3.42l26.46,0Zm103.68,32.939c0,-15.479 6.21,-30.149 19.98,-30.149c13.68,0 19.71,14.67 19.71,30.149c0,15.571 -6.03,30.241 -19.71,30.241c-13.77,0 -19.98,-14.67 -19.98,-30.24Zm-918.461,9.765l-13.68,-40.8l-13.44,40.8l27.12,0Zm813.161,-38.835l-6.3,0c-0.18,8.73 -0.18,17.73 -0.18,26.73l0,5.04l6.3,0c12.33,-0.001 17.28,-6.571 17.28,-16.11c0,-9.99 -5.31,-15.66 -17.1,-15.66Zm59.4,0l-8.55,0c-0.18,8.73 -0.18,17.37 -0.18,27.54l8.01,0c10.53,-0.001 15.75,-6.031 15.75,-14.22c0,-8.46 -4.68,-13.32 -15.03,-13.32Zm-558.881,-9.645l-11.4,0c-0.24,11.64 -0.24,23.16 -0.24,36.72l10.68,0c14.04,-0.001 21,-8.041 21,-18.96c0,-11.28 -6.24,-17.76 -20.04,-17.76Zm-173.88,0l-9.24,0c-0.24,11.28 -0.24,22.92 -0.24,34.56l6.96,0c15.84,-0.001 23.04,-5.641 23.04,-17.88c0,-11.76 -6.72,-16.68 -20.52,-16.68Z" style="fill:#fff;fill-rule:nonzero;"/>
</svg>
