<?xml version="1.0" encoding="UTF-8" standalone="no"?>
<!DOCTYPE svg PUBLIC "-//W3C//DTD SVG 1.1//EN" "http://www.w3.org/Graphics/SVG/1.1/DTD/svg11.dtd">
<svg width="100%" height="100%" viewBox="0 0 500 500" version="1.1" xmlns="http://www.w3.org/2000/svg" xmlns:xlink="http://www.w3.org/1999/xlink" xml:space="preserve" xmlns:serif="http://www.serif.com/" style="fill-rule:evenodd;clip-rule:evenodd;stroke-linejoin:round;stroke-miterlimit:1.41421;">
    <g transform="matrix(40.7173,0,0,40.7173,-6460.74,-8456.28)">
        <path d="M170.811,208.575L170.811,216.825C170.811,217.247 170.592,217.602 170.155,217.891C169.717,218.18 169.186,218.325 168.561,218.325C167.936,218.325 167.405,218.18 166.967,217.891C166.53,217.602 166.311,217.247 166.311,216.825C166.311,216.403 166.53,216.048 166.967,215.759C167.405,215.469 167.936,215.325 168.561,215.325C168.795,215.325 169.045,215.356 169.311,215.419L169.311,211.083L163.311,212.841L163.311,218.325C163.311,218.747 163.092,219.102 162.655,219.391C162.217,219.68 161.686,219.825 161.061,219.825C160.436,219.825 159.905,219.68 159.467,219.391C159.03,219.102 158.811,218.747 158.811,218.325C158.811,217.903 159.03,217.548 159.467,217.259C159.905,216.969 160.436,216.825 161.061,216.825C161.295,216.825 161.545,216.856 161.811,216.919L161.811,210.802C161.811,210.63 161.858,210.477 161.951,210.344C162.045,210.212 162.17,210.122 162.326,210.075L169.826,207.848C170.076,207.786 170.303,207.829 170.506,207.977C170.709,208.126 170.811,208.325 170.811,208.575Z" style="fill:white;fill-rule:nonzero;"/>
    </g>
</svg>
